<svg width="174" height="26" viewBox="0 0 174 26" fill="none" xmlns="http://www.w3.org/2000/svg">
<path d="M16.3057 17.2862L16.0897 19.3022H15.7057C14.4417 19.3022 13.4417 18.9742 12.7057 18.3182C12.3057 18.7662 11.8337 19.1022 11.2897 19.3262C10.7617 19.5662 10.2017 19.6862 9.60966 19.6862C9.06566 19.6862 8.43366 19.5662 7.71366 19.3262C6.99366 19.0862 5.97766 18.6942 4.66566 18.1502L3.75366 17.7662V25.9502H0.297656V15.6062L2.81766 13.4702L3.77766 13.8542L4.18566 12.2702C4.53766 10.8462 5.14566 9.75825 6.00966 9.00625C6.88966 8.25425 7.92966 7.87825 9.12966 7.87825C10.0897 7.87825 10.9457 8.13425 11.6977 8.64625C12.4657 9.14225 13.0657 9.84625 13.4977 10.7582C13.9297 11.6542 14.1457 12.6942 14.1457 13.8782C14.1457 14.3262 14.1857 14.6622 14.2657 14.8862C14.3457 15.0942 14.4897 15.2382 14.6977 15.3182C14.9217 15.3822 15.2577 15.4142 15.7057 15.4142H16.0897L16.3057 17.2862ZM6.96966 15.1262C8.37766 15.6702 9.30566 15.9422 9.75366 15.9422C10.1377 15.9422 10.4337 15.7742 10.6417 15.4382C10.8657 15.1022 10.9777 14.5902 10.9777 13.9022C10.9777 13.1502 10.8097 12.5822 10.4737 12.1982C10.1377 11.7982 9.71366 11.5982 9.20166 11.5982C8.78566 11.5982 8.41766 11.7582 8.09766 12.0782C7.77766 12.3982 7.54566 12.8382 7.40166 13.3982L6.96966 15.1262ZM15.8287 15.4142H18.2767C19.5567 15.4142 20.1567 14.9822 20.0767 14.1182C20.0127 13.3982 19.8127 12.1102 19.4767 10.2542L22.6927 9.43825C23.2367 11.7422 23.5087 13.4222 23.5087 14.4782C23.5087 15.3262 23.3247 16.1182 22.9567 16.8542C22.6047 17.5742 22.0607 18.1662 21.3247 18.6302C20.5887 19.0782 19.6847 19.3022 18.6127 19.3022H15.8287V15.4142ZM14.3407 21.9902H17.3647V25.0142H14.3407V21.9902ZM18.9007 21.9902H21.9487V25.0142H18.9007V21.9902ZM33.3548 11.0462V17.8142C33.3548 20.1662 32.7388 22.0062 31.5068 23.3342C30.2748 24.6782 28.5148 25.3502 26.2268 25.3502H24.7148V21.4622H26.2268C27.2188 21.4622 27.9708 21.3582 28.4828 21.1502C28.9948 20.9422 29.3548 20.5742 29.5628 20.0462C29.7868 19.5342 29.8988 18.7902 29.8988 17.8142V11.0462H33.3548ZM29.8508 4.99825H33.3068V8.35825H29.8508V4.99825ZM38.9579 21.6782C39.9019 21.6782 40.6059 21.6062 41.0699 21.4622C41.5499 21.3342 41.8859 21.1022 42.0779 20.7662C42.2699 20.4302 42.3819 19.9422 42.4139 19.3022H40.5659C38.9659 19.3022 37.7099 18.8462 36.7979 17.9342C35.9019 17.0062 35.4539 15.7182 35.4539 14.0702C35.4539 12.8702 35.6699 11.8222 36.1019 10.9262C36.5339 10.0142 37.1339 9.31025 37.9019 8.81425C38.6859 8.31825 39.5659 8.07025 40.5419 8.07025C41.5979 8.07025 42.5259 8.31825 43.3259 8.81425C44.1259 9.31025 44.7419 10.0142 45.1739 10.9262C45.6219 11.8222 45.8459 12.8702 45.8459 14.0702V15.4142H47.1899L47.3819 17.3822L47.1899 19.3022H45.8219C45.7259 21.1902 45.1259 22.7022 44.0219 23.8382C42.9179 24.9902 41.2299 25.5662 38.9579 25.5662H35.9819V21.6782H38.9579ZM38.7179 13.8542C38.7179 14.4302 38.8619 14.8702 39.1499 15.1742C39.4379 15.4622 39.9099 15.6062 40.5659 15.6062H42.4139V13.9742C42.4139 12.4382 41.7899 11.6702 40.5419 11.6702C39.9339 11.6702 39.4779 11.8782 39.1739 12.2942C38.8699 12.7102 38.7179 13.2302 38.7179 13.8542ZM46.9542 15.4142H47.5782C47.8502 15.4142 48.0582 15.3422 48.2022 15.1982C48.3622 15.0542 48.4902 14.7982 48.5862 14.4302L49.1382 12.2702C49.5062 10.8462 50.1222 9.75825 50.9862 9.00625C51.8502 8.25425 52.8822 7.87825 54.0822 7.87825C55.0262 7.87825 55.8822 8.13425 56.6502 8.64625C57.4182 9.15825 58.0182 9.87025 58.4502 10.7822C58.8822 11.6942 59.0982 12.7262 59.0982 13.8782C59.0982 15.2382 58.8662 16.3582 58.4022 17.2382C57.9382 18.1022 57.3622 18.7262 56.6742 19.1102C55.9862 19.4942 55.2822 19.6862 54.5622 19.6862C54.0342 19.6862 53.4582 19.5742 52.8342 19.3502C52.2102 19.1422 51.3462 18.7822 50.2422 18.2702C49.8742 18.5902 49.4582 18.8462 48.9942 19.0382C48.5462 19.2142 48.0902 19.3022 47.6262 19.3022H46.9542V15.4142ZM51.9222 15.0302C52.6902 15.3822 53.2662 15.6222 53.6502 15.7502C54.0342 15.8782 54.3862 15.9422 54.7062 15.9422C55.0742 15.9422 55.3622 15.7742 55.5702 15.4382C55.7942 15.1022 55.9062 14.5902 55.9062 13.9022C55.9062 13.1502 55.7382 12.5822 55.4022 12.1982C55.0662 11.7982 54.6502 11.5982 54.1542 11.5982C53.7382 11.5982 53.3702 11.7582 53.0502 12.0782C52.7302 12.3982 52.4902 12.8382 52.3302 13.3982L51.9222 15.0302ZM67.1491 19.3022C65.4371 19.3022 64.1491 18.7982 63.2851 17.7902C62.4371 16.7822 62.0131 15.4542 62.0131 13.8062V3.12625H65.4451V13.8062C65.4451 14.3182 65.4771 14.6782 65.5411 14.8862C65.6051 15.0942 65.7491 15.2382 65.9731 15.3182C66.1971 15.3822 66.5891 15.4142 67.1491 15.4142H68.1811L68.3011 17.4302L68.1811 19.3022H67.1491ZM75.7788 11.0462V14.5502C75.7788 14.8862 75.8748 15.1182 76.0668 15.2462C76.2588 15.3582 76.5628 15.4142 76.9788 15.4142H78.2988L78.4428 17.4542L78.2988 19.3022H76.9788C76.4828 19.3022 75.9628 19.2142 75.4188 19.0382C74.8908 18.8462 74.4108 18.5742 73.9788 18.2222C73.5308 18.5742 73.0188 18.8462 72.4428 19.0382C71.8828 19.2142 71.3148 19.3022 70.7388 19.3022H67.9308V15.4142H70.7388C71.3468 15.4142 71.7628 15.3502 71.9868 15.2222C72.2268 15.0942 72.3468 14.8542 72.3468 14.5022V11.0462H75.7788ZM65.9868 21.9902H69.0108V25.0142H65.9868V21.9902ZM70.5468 21.9902H73.5948V25.0142H70.5468V21.9902ZM78.0318 15.4142H80.2398C81.3598 15.4142 81.9198 15.0302 81.9198 14.2622C81.9198 13.5742 81.7278 12.2382 81.3438 10.2542L84.5598 9.43825C85.1038 11.7422 85.3758 13.4222 85.3758 14.4782C85.3758 15.3262 85.1918 16.1182 84.8238 16.8542C84.4718 17.5742 83.9278 18.1662 83.1918 18.6302C82.4718 19.0782 81.5918 19.3022 80.5518 19.3022H78.0318V15.4142ZM77.2158 21.9662H80.6718V25.3262H77.2158V21.9662ZM100.417 4.54225C100.641 5.50225 100.977 6.90225 101.425 8.74225C101.873 10.5662 102.257 12.1502 102.577 13.4942C102.753 14.2302 103.081 14.7342 103.561 15.0062C104.041 15.2782 104.681 15.4142 105.481 15.4142H105.961L106.177 17.2862L105.961 19.3022H105.481C104.457 19.3022 103.473 19.0862 102.529 18.6542C101.585 18.2222 100.809 17.5662 100.201 16.6862C99.737 17.2302 99.209 17.6462 98.617 17.9342C98.025 18.2062 97.401 18.3422 96.745 18.3422C95.913 18.3422 95.097 18.1182 94.297 17.6702C93.449 17.1902 92.793 16.5262 92.329 15.6782C91.881 14.8302 91.657 13.9262 91.657 12.9662C91.657 11.9902 91.889 11.1102 92.353 10.3262C92.625 9.86225 92.913 9.47025 93.217 9.15025C93.521 8.83025 93.993 8.48625 94.633 8.11825C95.273 7.73425 96.193 7.28625 97.393 6.77425L97.057 5.40624L100.417 4.54225ZM95.329 12.2942C95.185 12.5022 95.113 12.7502 95.113 13.0382C95.113 13.2782 95.169 13.5182 95.281 13.7582C95.409 13.9822 95.577 14.1742 95.785 14.3342C96.057 14.5422 96.385 14.6462 96.769 14.6462C97.281 14.6462 97.737 14.4382 98.137 14.0222C98.489 13.6542 98.665 13.1502 98.665 12.5102C98.665 12.3982 98.649 12.1822 98.617 11.8622L98.281 10.5182C97.273 10.9342 96.569 11.2702 96.169 11.5262C95.785 11.7822 95.505 12.0382 95.329 12.2942ZM105.688 15.4142H106.552C107.336 15.4142 107.912 15.4062 108.28 15.3902C108.008 15.0382 107.792 14.6382 107.632 14.1902C107.472 13.7262 107.392 13.2622 107.392 12.7982C107.392 11.9502 107.616 11.1262 108.064 10.3262C108.528 9.51025 109.16 8.84625 109.96 8.33425C110.76 7.82225 111.656 7.56625 112.648 7.56625C113.608 7.56625 114.48 7.82225 115.264 8.33425C116.064 8.83025 116.688 9.48625 117.136 10.3022C117.6 11.1022 117.832 11.9262 117.832 12.7742C117.832 13.2382 117.744 13.7022 117.568 14.1662C117.408 14.6302 117.184 15.0382 116.896 15.3902C117.264 15.4062 117.832 15.4142 118.6 15.4142H119.488L119.728 17.3582L119.488 19.3022H117.736C117 19.3022 116.176 19.2222 115.264 19.0622C114.352 18.8862 113.456 18.6382 112.576 18.3182C111.696 18.6382 110.8 18.8862 109.888 19.0622C108.992 19.2222 108.192 19.3022 107.488 19.3022H105.688V15.4142ZM110.752 13.0622C110.752 13.5742 110.936 14.0142 111.304 14.3822C111.672 14.7502 112.104 14.9982 112.6 15.1262C113.096 14.9822 113.536 14.7262 113.92 14.3582C114.32 13.9902 114.52 13.5582 114.52 13.0622C114.52 12.5342 114.336 12.0942 113.968 11.7422C113.6 11.3742 113.16 11.1902 112.648 11.1902C112.12 11.1902 111.672 11.3742 111.304 11.7422C110.936 12.0942 110.752 12.5342 110.752 13.0622ZM110.896 2.69425H114.352V6.05424H110.896V2.69425ZM119.259 15.4142H123.243C124.395 15.4142 125.163 15.3582 125.547 15.2462L124.515 15.0302C123.555 14.8062 122.771 14.5102 122.163 14.1422C121.555 13.7582 121.091 13.2462 120.771 12.6062C120.467 11.9502 120.315 11.1022 120.315 10.0622C120.315 8.97425 120.523 8.03825 120.939 7.25425C121.371 6.45425 121.947 5.84625 122.667 5.43025C123.403 4.99825 124.219 4.78225 125.115 4.78225C126.555 4.78225 127.707 5.25425 128.571 6.19825C129.451 7.12625 129.891 8.41425 129.891 10.0622V11.7662C129.891 13.9742 129.379 15.7822 128.355 17.1902C127.331 18.5982 125.627 19.3022 123.243 19.3022H119.259V15.4142ZM121.107 0.726245H124.107V3.72624H121.107V0.726245ZM123.555 10.0142C123.555 10.3502 123.659 10.6302 123.867 10.8542C124.075 11.0782 124.427 11.2702 124.923 11.4302L126.675 12.0302V10.0142C126.675 9.51825 126.547 9.11025 126.291 8.79025C126.051 8.47025 125.659 8.31025 125.115 8.31025C124.587 8.31025 124.195 8.47825 123.939 8.81425C123.683 9.15025 123.555 9.55025 123.555 10.0142ZM125.667 0.726245H128.691V3.72624H125.667V0.726245ZM135.731 21.4622C136.675 21.4622 137.379 21.3902 137.843 21.2462C138.323 21.1182 138.659 20.8862 138.851 20.5502C139.043 20.2142 139.155 19.7262 139.187 19.0862H137.339C135.739 19.0862 134.483 18.6302 133.571 17.7182C132.675 16.7902 132.227 15.5022 132.227 13.8542C132.227 12.6542 132.443 11.6062 132.875 10.7102C133.307 9.79825 133.907 9.09425 134.675 8.59825C135.459 8.10225 136.339 7.85425 137.315 7.85425C138.371 7.85425 139.299 8.10225 140.099 8.59825C140.899 9.09425 141.515 9.79825 141.947 10.7102C142.395 11.6062 142.619 12.6542 142.619 13.8542V18.5582C142.619 20.5902 142.067 22.2302 140.963 23.4782C139.859 24.7262 138.115 25.3502 135.731 25.3502H132.755V21.4622H135.731ZM135.491 13.6382C135.491 14.2142 135.635 14.6542 135.923 14.9582C136.211 15.2462 136.683 15.3902 137.339 15.3902H139.187V13.7582C139.187 12.2222 138.563 11.4542 137.315 11.4542C136.707 11.4542 136.251 11.6622 135.947 12.0782C135.643 12.4942 135.491 13.0142 135.491 13.6382ZM156.134 25.3502C154.678 25.3502 153.422 25.0302 152.366 24.3902C151.31 23.7662 150.502 22.9102 149.942 21.8222C149.398 20.7342 149.118 19.5022 149.102 18.1262C149.102 17.1982 149.27 16.1582 149.606 15.0062C149.942 13.8382 150.35 12.7662 150.83 11.7902L153.71 13.3262C152.878 15.1502 152.462 16.7422 152.462 18.1022C152.478 19.2862 152.758 20.1422 153.302 20.6702C153.846 21.1982 154.79 21.4622 156.134 21.4622H158.006C159.222 21.4622 160.07 21.3742 160.55 21.1982C161.046 21.0222 161.302 20.7742 161.318 20.4542C161.318 20.0542 160.998 19.7822 160.358 19.6382C159.766 19.4942 158.758 19.3822 157.334 19.3022V15.4142H166.814L167.03 17.4542L166.814 19.3022H164.438C164.598 19.6702 164.678 20.0862 164.678 20.5502C164.662 21.4142 164.35 22.2142 163.742 22.9502C163.134 23.6862 162.326 24.2702 161.318 24.7022C160.31 25.1342 159.206 25.3502 158.006 25.3502H156.134ZM166.555 15.4142H168.763C169.883 15.4142 170.443 15.0302 170.443 14.2622C170.443 13.5742 170.251 12.2382 169.867 10.2542L173.083 9.43825C173.627 11.7422 173.899 13.4222 173.899 14.4782C173.899 15.3262 173.715 16.1182 173.347 16.8542C172.995 17.5742 172.451 18.1662 171.715 18.6302C170.995 19.0782 170.115 19.3022 169.075 19.3022H166.555V15.4142ZM167.971 21.9422H171.427V25.3022H167.971V21.9422Z" fill="#F5F5F5"/>
</svg>
