<svg width="147" height="28" viewBox="0 0 147 28" fill="none" xmlns="http://www.w3.org/2000/svg">
<path d="M3.95013 23.7922C5.0248 23.7922 5.83947 23.6969 6.39413 23.5062C6.9488 23.3329 7.33013 23.0296 7.53813 22.5962C7.76347 22.1802 7.89347 21.5822 7.92813 20.8022H5.69213C4.04547 20.8022 2.7368 20.3256 1.76613 19.3722C0.8128 18.4016 0.336133 17.0496 0.336133 15.3162C0.336133 14.0856 0.561466 12.9936 1.01213 12.0402C1.48013 11.0869 2.1128 10.3502 2.91013 9.83025C3.7248 9.29291 4.64347 9.02425 5.66613 9.02425C6.77547 9.02425 7.74613 9.28425 8.57813 9.80425C9.42747 10.3242 10.0775 11.0609 10.5281 12.0142C10.9961 12.9676 11.2301 14.0682 11.2301 15.3162V17.0582H12.6601L12.8681 18.9562L12.6601 20.8022H11.2301C11.1608 22.8302 10.5368 24.4596 9.35813 25.6902C8.17947 26.9209 6.3768 27.5362 3.95013 27.5362H0.856133V23.7922H3.95013ZM3.50813 15.1342C3.50813 15.8449 3.68147 16.3736 4.02813 16.7202C4.3748 17.0496 4.92947 17.2142 5.69213 17.2142H7.92813V15.2382C7.92813 13.4356 7.17413 12.5342 5.66613 12.5342C4.95547 12.5342 4.41813 12.7769 4.05413 13.2622C3.69013 13.7476 3.50813 14.3716 3.50813 15.1342ZM12.3886 17.0582H13.0646C13.4112 17.0582 13.6712 16.9802 13.8446 16.8242C14.0352 16.6509 14.1739 16.3736 14.2606 15.9922L14.9366 13.4962C15.3179 11.9882 15.9592 10.8356 16.8606 10.0382C17.7619 9.24091 18.8452 8.84225 20.1106 8.84225C21.1159 8.84225 22.0086 9.11958 22.7886 9.67425C23.5859 10.2116 24.2099 10.9656 24.6606 11.9362C25.1112 12.8896 25.3366 13.9642 25.3366 15.1602C25.3366 15.7149 25.3799 16.1222 25.4666 16.3822C25.5706 16.6422 25.7352 16.8242 25.9606 16.9282C26.1859 17.0149 26.5326 17.0582 27.0006 17.0582H27.3906L27.5986 18.8782L27.3906 20.8022H27.0006C25.7352 20.8022 24.7126 20.4556 23.9326 19.7622C23.4819 20.2649 22.9706 20.6376 22.3986 20.8802C21.8439 21.1402 21.2719 21.2702 20.6826 21.2702C20.0932 21.2702 19.4692 21.1489 18.8106 20.9062C18.1692 20.6809 17.2072 20.2649 15.9246 19.6582C15.5259 20.0222 15.0839 20.3082 14.5986 20.5162C14.1132 20.7069 13.6192 20.8022 13.1166 20.8022H12.3886V17.0582ZM17.5106 16.5122C18.4466 16.9456 19.1399 17.2402 19.5906 17.3962C20.0412 17.5522 20.4486 17.6302 20.8126 17.6302C21.7659 17.6302 22.2426 16.8156 22.2426 15.1862C22.2426 14.3022 22.0519 13.6262 21.6706 13.1582C21.2892 12.6729 20.7952 12.4302 20.1886 12.4302C19.6859 12.4302 19.2439 12.6122 18.8626 12.9762C18.4812 13.3402 18.2039 13.8689 18.0306 14.5622L17.5106 16.5122ZM35.3571 12.0922V15.8622C35.3571 16.3129 35.4785 16.6249 35.7211 16.7982C35.9638 16.9716 36.3451 17.0582 36.8651 17.0582H38.2691L38.4251 19.0342L38.2691 20.8022H36.8651C36.3278 20.8022 35.7645 20.6982 35.1751 20.4902C34.5858 20.2649 34.0658 19.9442 33.6151 19.5282C33.1298 19.9442 32.5751 20.2649 31.9511 20.4902C31.3445 20.6982 30.7205 20.8022 30.0791 20.8022H27.1151V17.0582H30.0791C30.8071 17.0582 31.3185 16.9629 31.6131 16.7722C31.9078 16.5642 32.0551 16.2176 32.0551 15.7322V12.0922H35.3571ZM25.3211 23.9742H28.4411V27.0942H25.3211V23.9742ZM30.2091 23.9742H33.3291V27.0942H30.2091V23.9742ZM38.0077 17.0582H39.9057C40.5124 17.0582 40.9457 16.9369 41.2057 16.6942C41.483 16.4342 41.6217 16.0269 41.6217 15.4722V12.0922H44.9237V15.5502C44.9237 16.0702 45.0624 16.4516 45.3397 16.6942C45.6344 16.9369 46.033 17.0582 46.5357 17.0582C47.6624 17.0582 48.2257 16.5122 48.2257 15.4202V12.0922H51.5277L51.5017 15.5502C51.5017 16.5556 52.0217 17.0582 53.0617 17.0582C53.599 17.0582 54.0237 16.9109 54.3357 16.6162C54.665 16.3216 54.795 15.9316 54.7257 15.4462C54.483 13.8689 54.2317 12.4476 53.9717 11.1822L57.0917 10.4022C57.681 12.9502 57.9757 14.7616 57.9757 15.8362C57.9757 16.7029 57.8024 17.5176 57.4557 18.2802C57.109 19.0256 56.5717 19.6322 55.8437 20.1002C55.1157 20.5682 54.1884 20.8022 53.0617 20.8022C52.403 20.8022 51.7964 20.6722 51.2417 20.4122C50.687 20.1349 50.219 19.7709 49.8377 19.3202C49.439 19.7709 48.945 20.1349 48.3557 20.4122C47.7837 20.6722 47.1424 20.8022 46.4317 20.8022C45.8424 20.8022 45.2184 20.6549 44.5597 20.3602C43.9184 20.0656 43.4504 19.7189 43.1557 19.3202C42.8437 19.7536 42.3844 20.1089 41.7777 20.3862C41.1884 20.6636 40.521 20.8022 39.7757 20.8022H38.0077V17.0582ZM65.9518 12.0922V19.4242C65.9518 21.9202 65.3018 23.8616 64.0018 25.2482C62.7018 26.6522 60.8471 27.3542 58.4378 27.3542H56.7998V23.6102H58.4378C59.5298 23.6102 60.3705 23.4802 60.9598 23.2202C61.5665 22.9776 61.9911 22.5529 62.2338 21.9462C62.4938 21.3569 62.6238 20.5162 62.6238 19.4242V12.0922H65.9518ZM79.0461 12.9762L79.2281 13.4182C79.6614 14.3716 80.0341 15.1082 80.3461 15.6282C80.6754 16.1309 81.0047 16.4949 81.3341 16.7202C81.6807 16.9456 82.0794 17.0582 82.5301 17.0582H82.9721L83.1541 18.9822L82.9721 20.8022H82.5301C81.0567 20.8022 79.7914 20.2216 78.7341 19.0602C77.6767 20.2216 76.2121 20.8022 74.3401 20.8022H73.0141C71.9567 20.8022 71.0121 20.6202 70.1801 20.2562C69.3654 19.8922 68.7241 19.5022 68.2561 19.0862L69.8161 16.0962C70.1281 16.3042 70.5614 16.5209 71.1161 16.7462C71.6881 16.9542 72.3207 17.0582 73.0141 17.0582H74.3401C74.9121 17.0582 75.3541 17.0236 75.6661 16.9542C75.9781 16.8676 76.2121 16.7202 76.3681 16.5122C76.4894 16.3216 76.5501 16.1569 76.5501 16.0182C76.5501 15.7409 76.3767 15.2469 76.0301 14.5362L73.2741 8.55625L76.2901 6.99625L79.0461 12.9762ZM82.7206 17.0582H83.3966C83.7433 17.0582 84.0033 16.9802 84.1766 16.8242C84.3673 16.6509 84.5059 16.3736 84.5926 15.9922L85.2686 13.4962C85.6499 11.9882 86.2913 10.8356 87.1926 10.0382C88.0939 9.24091 89.1773 8.84225 90.4426 8.84225C91.4479 8.84225 92.3406 9.11958 93.1206 9.67425C93.9179 10.2116 94.5419 10.9656 94.9926 11.9362C95.4433 12.8896 95.6686 13.9642 95.6686 15.1602C95.6686 16.5989 95.4346 17.7776 94.9666 18.6962C94.4986 19.5976 93.9093 20.2562 93.1986 20.6722C92.5053 21.0709 91.7773 21.2702 91.0146 21.2702C90.4253 21.2702 89.8013 21.1489 89.1426 20.9062C88.5013 20.6809 87.5393 20.2649 86.2566 19.6582C85.8579 20.0222 85.4159 20.3082 84.9306 20.5162C84.4453 20.7069 83.9513 20.8022 83.4486 20.8022H82.7206V17.0582ZM87.8426 16.5122C88.7786 16.9456 89.4719 17.2402 89.9226 17.3962C90.3733 17.5522 90.7806 17.6302 91.1446 17.6302C92.0979 17.6302 92.5746 16.8156 92.5746 15.1862C92.5746 14.3022 92.3839 13.6262 92.0026 13.1582C91.6213 12.6729 91.1273 12.4302 90.5206 12.4302C90.0179 12.4302 89.5759 12.6122 89.1946 12.9762C88.8133 13.3402 88.5359 13.8689 88.3626 14.5622L87.8426 16.5122ZM107.087 23.7922C108.162 23.7922 108.976 23.6969 109.531 23.5062C110.086 23.3329 110.467 23.0296 110.675 22.5962C110.9 22.1802 111.03 21.5822 111.065 20.8022H108.829C107.182 20.8022 105.874 20.3256 104.903 19.3722C103.95 18.4016 103.473 17.0496 103.473 15.3162C103.473 14.0856 103.698 12.9936 104.149 12.0402C104.617 11.0869 105.25 10.3502 106.047 9.83025C106.862 9.29291 107.78 9.02425 108.803 9.02425C109.912 9.02425 110.883 9.28425 111.715 9.80425C112.564 10.3242 113.214 11.0609 113.665 12.0142C114.133 12.9676 114.367 14.0682 114.367 15.3162V17.0582H115.797L116.005 18.9562L115.797 20.8022H114.367C114.298 22.8302 113.674 24.4596 112.495 25.6902C111.316 26.9209 109.514 27.5362 107.087 27.5362H103.993V23.7922H107.087ZM106.645 15.1342C106.645 15.8449 106.818 16.3736 107.165 16.7202C107.512 17.0496 108.066 17.2142 108.829 17.2142H111.065V15.2382C111.065 13.4356 110.311 12.5342 108.803 12.5342C108.092 12.5342 107.555 12.7769 107.191 13.2622C106.827 13.7476 106.645 14.3716 106.645 15.1342ZM128.031 5.85224L121.245 8.89425L124.703 12.4562C125.223 12.9936 125.613 13.5829 125.873 14.2242C126.133 14.8482 126.263 15.4896 126.263 16.1482C126.263 16.9629 126.064 17.7256 125.665 18.4362C125.284 19.1469 124.712 19.7189 123.949 20.1522C123.204 20.5856 122.329 20.8022 121.323 20.8022H115.525V17.0582H121.401C121.852 17.0582 122.199 16.9716 122.441 16.7982C122.701 16.6076 122.831 16.3649 122.831 16.0702C122.831 15.7062 122.649 15.3422 122.285 14.9782L117.657 10.2982L118.463 6.11225L126.705 2.44625L128.031 5.85224ZM118.775 3.12225L125.275 0.288245L125.743 1.53624L118.619 4.63025L118.775 3.12225ZM131.792 23.7922C132.867 23.7922 133.681 23.6969 134.236 23.5062C134.791 23.3329 135.172 23.0296 135.38 22.5962C135.605 22.1802 135.735 21.5822 135.77 20.8022H133.534C131.887 20.8022 130.579 20.3256 129.608 19.3722C128.655 18.4016 128.178 17.0496 128.178 15.3162C128.178 14.0856 128.403 12.9936 128.854 12.0402C129.322 11.0869 129.955 10.3502 130.752 9.83025C131.567 9.29291 132.485 9.02425 133.508 9.02425C134.617 9.02425 135.588 9.28425 136.42 9.80425C137.269 10.3242 137.919 11.0609 138.37 12.0142C138.838 12.9676 139.072 14.0682 139.072 15.3162V17.0582H140.502L140.71 18.9562L140.502 20.8022H139.072C139.003 22.8302 138.379 24.4596 137.2 25.6902C136.021 26.9209 134.219 27.5362 131.792 27.5362H128.698V23.7922H131.792ZM131.35 15.1342C131.35 15.8449 131.523 16.3736 131.87 16.7202C132.217 17.0496 132.771 17.2142 133.534 17.2142H135.77V15.2382C135.77 13.4356 135.016 12.5342 133.508 12.5342C132.797 12.5342 132.26 12.7769 131.896 13.2622C131.532 13.7476 131.35 14.3716 131.35 15.1342ZM146.444 15.7322C146.444 16.8762 146.193 17.8296 145.69 18.5922C145.188 19.3549 144.564 19.9182 143.818 20.2822C143.073 20.6289 142.345 20.8022 141.634 20.8022H140.23V17.0582H141.452C142.579 17.0582 143.142 16.5036 143.142 15.3942V3.43424H146.444V15.7322Z" fill="#F5F5F5"/>
</svg>
