<svg width="145" height="28" viewBox="0 0 145 28" fill="none" xmlns="http://www.w3.org/2000/svg">
<path d="M4.20697 23.7922C5.28164 23.7922 6.0963 23.6969 6.65097 23.5062C7.20564 23.3329 7.58697 23.0296 7.79497 22.5962C8.0203 22.1802 8.1503 21.5822 8.18497 20.8022H5.94897C4.3023 20.8022 2.99364 20.3256 2.02297 19.3722C1.06964 18.4016 0.592969 17.0496 0.592969 15.3162C0.592969 14.0856 0.818302 12.9936 1.26897 12.0402C1.73697 11.0869 2.36964 10.3502 3.16697 9.83025C3.98164 9.29291 4.9003 9.02425 5.92297 9.02425C7.0323 9.02425 8.00297 9.28425 8.83497 9.80425C9.6843 10.3242 10.3343 11.0609 10.785 12.0142C11.253 12.9676 11.487 14.0682 11.487 15.3162V17.0582H12.917L13.125 18.9562L12.917 20.8022H11.487C11.4176 22.8302 10.7936 24.4596 9.61497 25.6902C8.4363 26.9209 6.63364 27.5362 4.20697 27.5362H1.11297V23.7922H4.20697ZM3.76497 15.1342C3.76497 15.8449 3.9383 16.3736 4.28497 16.7202C4.63164 17.0496 5.1863 17.2142 5.94897 17.2142H8.18497V15.2382C8.18497 13.4356 7.43097 12.5342 5.92297 12.5342C5.2123 12.5342 4.67497 12.7769 4.31097 13.2622C3.94697 13.7476 3.76497 14.3716 3.76497 15.1342ZM12.6454 17.0582H13.3214C13.6681 17.0582 13.9281 16.9802 14.1014 16.8242C14.2921 16.6509 14.4307 16.3736 14.5174 15.9922L15.1934 13.4962C15.5747 11.9882 16.2161 10.8356 17.1174 10.0382C18.0187 9.24091 19.1021 8.84225 20.3674 8.84225C21.3727 8.84225 22.2654 9.11958 23.0454 9.67425C23.8427 10.2116 24.4667 10.9656 24.9174 11.9362C25.3681 12.8896 25.5934 13.9642 25.5934 15.1602C25.5934 15.7149 25.6367 16.1222 25.7234 16.3822C25.8274 16.6422 25.9921 16.8242 26.2174 16.9282C26.4427 17.0149 26.7894 17.0582 27.2574 17.0582H27.6474L27.8554 18.8782L27.6474 20.8022H27.2574C25.9921 20.8022 24.9694 20.4556 24.1894 19.7622C23.7387 20.2649 23.2274 20.6376 22.6554 20.8802C22.1007 21.1402 21.5287 21.2702 20.9394 21.2702C20.3501 21.2702 19.7261 21.1489 19.0674 20.9062C18.4261 20.6809 17.4641 20.2649 16.1814 19.6582C15.7827 20.0222 15.3407 20.3082 14.8554 20.5162C14.3701 20.7069 13.8761 20.8022 13.3734 20.8022H12.6454V17.0582ZM17.7674 16.5122C18.7034 16.9456 19.3967 17.2402 19.8474 17.3962C20.2981 17.5522 20.7054 17.6302 21.0694 17.6302C22.0227 17.6302 22.4994 16.8156 22.4994 15.1862C22.4994 14.3022 22.3087 13.6262 21.9274 13.1582C21.5461 12.6729 21.0521 12.4302 20.4454 12.4302C19.9427 12.4302 19.5007 12.6122 19.1194 12.9762C18.7381 13.3402 18.4607 13.8689 18.2874 14.5622L17.7674 16.5122ZM27.346 17.0582H30.232C31.012 17.0582 31.5666 16.9282 31.896 16.6682C32.2253 16.3909 32.3726 16.0009 32.338 15.4982C32.2513 14.4236 32.026 12.9849 31.662 11.1822L34.782 10.4022C34.99 11.3209 35.1806 12.3002 35.354 13.3402C35.5446 14.3802 35.64 15.2209 35.64 15.8622C35.64 16.7289 35.4493 17.5349 35.068 18.2802C34.6866 19.0256 34.106 19.6322 33.326 20.1002C32.5633 20.5682 31.6186 20.8022 30.492 20.8022H27.346V17.0582ZM25.89 23.9742H28.984V27.0942H25.89V23.9742ZM30.752 23.9742H33.872V27.0942H30.752V23.9742ZM44.6012 12.0922V19.4242C44.6012 21.9202 43.9512 23.8616 42.6512 25.2482C41.3512 26.6522 39.4966 27.3542 37.0872 27.3542H35.4492V23.6102H37.0872C38.1792 23.6102 39.0199 23.4802 39.6092 23.2202C40.2159 22.9776 40.6406 22.5529 40.8832 21.9462C41.1432 21.3569 41.2732 20.5162 41.2732 19.4242V12.0922H44.6012ZM50.5195 23.7922C51.5941 23.7922 52.4088 23.6969 52.9635 23.5062C53.5181 23.3329 53.8995 23.0296 54.1075 22.5962C54.3328 22.1802 54.4628 21.5822 54.4975 20.8022H52.2615C50.6148 20.8022 49.3061 20.3256 48.3355 19.3722C47.3821 18.4016 46.9055 17.0496 46.9055 15.3162C46.9055 14.0856 47.1308 12.9936 47.5815 12.0402C48.0495 11.0869 48.6821 10.3502 49.4795 9.83025C50.2941 9.29291 51.2128 9.02425 52.2355 9.02425C53.3448 9.02425 54.3155 9.28425 55.1475 9.80425C55.9968 10.3242 56.6468 11.0609 57.0975 12.0142C57.5655 12.9676 57.7995 14.0682 57.7995 15.3162V17.0582H59.2295L59.4375 18.9562L59.2295 20.8022H57.7995C57.7301 22.8302 57.1061 24.4596 55.9275 25.6902C54.7488 26.9209 52.9461 27.5362 50.5195 27.5362H47.4255V23.7922H50.5195ZM50.0775 15.1342C50.0775 15.8449 50.2508 16.3736 50.5975 16.7202C50.9441 17.0496 51.4988 17.2142 52.2615 17.2142H54.4975V15.2382C54.4975 13.4356 53.7435 12.5342 52.2355 12.5342C51.5248 12.5342 50.9875 12.7769 50.6235 13.2622C50.2595 13.7476 50.0775 14.3716 50.0775 15.1342ZM71.4119 5.17625L64.1319 8.37425L67.4079 12.4562C67.4426 12.4909 67.4599 12.5082 67.4599 12.5082C68.5519 13.8949 69.3406 14.8656 69.8259 15.4202C70.3112 15.9576 70.7879 16.3649 71.2559 16.6422C71.7239 16.9196 72.2612 17.0582 72.8679 17.0582H73.3099L73.5179 18.8782L73.3099 20.8022H72.8679C71.9666 20.8022 71.1692 20.6289 70.4759 20.2822C69.7999 19.9182 69.0546 19.3116 68.2399 18.4622C67.8759 19.1902 67.3299 19.7622 66.6019 20.1782C65.8912 20.5942 65.0246 20.8022 64.0019 20.8022H58.9579V17.0582H64.0799C64.5306 17.0582 64.8686 16.9716 65.0939 16.7982C65.3366 16.6249 65.4579 16.3909 65.4579 16.0962C65.4579 15.7496 65.2932 15.3769 64.9639 14.9782L60.5439 9.77825L61.3499 5.59225L70.0599 1.74425L71.4119 5.17625ZM80.5897 12.0922V15.8622C80.5897 16.3129 80.711 16.6249 80.9537 16.7982C81.1964 16.9716 81.5777 17.0582 82.0977 17.0582H82.8777L83.0337 19.0602L82.8777 20.8022H82.0977C81.5604 20.8022 80.997 20.6982 80.4077 20.4902C79.8184 20.2649 79.2984 19.9442 78.8477 19.5282C78.3797 19.9442 77.8337 20.2649 77.2097 20.4902C76.603 20.6982 75.979 20.8022 75.3377 20.8022H73.0497V17.0582H75.3377C76.0484 17.0582 76.551 16.9629 76.8457 16.7722C77.1404 16.5642 77.2877 16.2176 77.2877 15.7322V12.0922H80.5897ZM76.1697 5.64425H79.6277V9.02425H76.1697V5.64425ZM95.076 5.17625L87.796 8.37425L91.8 12.4562C92.32 12.9762 92.71 13.5569 92.97 14.1982C93.23 14.8222 93.36 15.4636 93.36 16.1222C93.36 16.9542 93.1606 17.7256 92.762 18.4362C92.3806 19.1469 91.8086 19.7189 91.046 20.1522C90.3006 20.5856 89.4253 20.8022 88.42 20.8022H82.622V17.0582H88.498C88.9486 17.0582 89.2953 16.9716 89.538 16.7982C89.798 16.6076 89.928 16.3649 89.928 16.0702C89.928 15.7062 89.746 15.3422 89.382 14.9782L84.208 9.77825L85.014 5.59225L93.724 1.74425L95.076 5.17625ZM104.83 23.7922C105.905 23.7922 106.719 23.6969 107.274 23.5062C107.829 23.3329 108.21 23.0296 108.418 22.5962C108.643 22.1802 108.773 21.5822 108.808 20.8022H106.572C104.925 20.8022 103.617 20.3256 102.646 19.3722C101.693 18.4016 101.216 17.0496 101.216 15.3162C101.216 14.0856 101.441 12.9936 101.892 12.0402C102.36 11.0869 102.993 10.3502 103.79 9.83025C104.605 9.29291 105.523 9.02425 106.546 9.02425C107.655 9.02425 108.626 9.28425 109.458 9.80425C110.307 10.3242 110.957 11.0609 111.408 12.0142C111.876 12.9676 112.11 14.0682 112.11 15.3162V17.0582H113.54L113.748 18.9562L113.54 20.8022H112.11C112.041 22.8302 111.417 24.4596 110.238 25.6902C109.059 26.9209 107.257 27.5362 104.83 27.5362H101.736V23.7922H104.83ZM104.388 15.1342C104.388 15.8449 104.561 16.3736 104.908 16.7202C105.255 17.0496 105.809 17.2142 106.572 17.2142H108.808V15.2382C108.808 13.4356 108.054 12.5342 106.546 12.5342C105.835 12.5342 105.298 12.7769 104.934 13.2622C104.57 13.7476 104.388 14.3716 104.388 15.1342ZM125.774 5.85224L118.988 8.89425L122.446 12.4562C122.966 12.9936 123.356 13.5829 123.616 14.2242C123.876 14.8482 124.006 15.4896 124.006 16.1482C124.006 16.9629 123.807 17.7256 123.408 18.4362C123.027 19.1469 122.455 19.7189 121.692 20.1522C120.947 20.5856 120.072 20.8022 119.066 20.8022H113.268V17.0582H119.144C119.595 17.0582 119.942 16.9716 120.184 16.7982C120.444 16.6076 120.574 16.3649 120.574 16.0702C120.574 15.7062 120.392 15.3422 120.028 14.9782L115.4 10.2982L116.206 6.11225L124.448 2.44625L125.774 5.85224ZM116.518 3.12225L123.018 0.288245L123.486 1.53624L116.362 4.63025L116.518 3.12225ZM129.535 23.7922C130.61 23.7922 131.424 23.6969 131.979 23.5062C132.534 23.3329 132.915 23.0296 133.123 22.5962C133.348 22.1802 133.478 21.5822 133.513 20.8022H131.277C129.63 20.8022 128.322 20.3256 127.351 19.3722C126.398 18.4016 125.921 17.0496 125.921 15.3162C125.921 14.0856 126.146 12.9936 126.597 12.0402C127.065 11.0869 127.698 10.3502 128.495 9.83025C129.31 9.29291 130.228 9.02425 131.251 9.02425C132.36 9.02425 133.331 9.28425 134.163 9.80425C135.012 10.3242 135.662 11.0609 136.113 12.0142C136.581 12.9676 136.815 14.0682 136.815 15.3162V17.0582H138.245L138.453 18.9562L138.245 20.8022H136.815C136.746 22.8302 136.122 24.4596 134.943 25.6902C133.764 26.9209 131.962 27.5362 129.535 27.5362H126.441V23.7922H129.535ZM129.093 15.1342C129.093 15.8449 129.266 16.3736 129.613 16.7202C129.96 17.0496 130.514 17.2142 131.277 17.2142H133.513V15.2382C133.513 13.4356 132.759 12.5342 131.251 12.5342C130.54 12.5342 130.003 12.7769 129.639 13.2622C129.275 13.7476 129.093 14.3716 129.093 15.1342ZM144.188 15.7322C144.188 16.8762 143.936 17.8296 143.434 18.5922C142.931 19.3549 142.307 19.9182 141.562 20.2822C140.816 20.6289 140.088 20.8022 139.378 20.8022H137.974V17.0582H139.196C140.322 17.0582 140.886 16.5036 140.886 15.3942V3.43424H144.188V15.7322Z" fill="#F5F5F5"/>
</svg>
