<svg width="147" height="28" viewBox="0 0 147 28" fill="none" xmlns="http://www.w3.org/2000/svg">
<path d="M4.1474 23.688C5.22207 23.688 6.03673 23.5927 6.5914 23.402C7.14607 23.2287 7.5274 22.9253 7.7354 22.492C7.96073 22.076 8.09073 21.478 8.1254 20.698H5.8894C4.24273 20.698 2.93407 20.2213 1.9634 19.268C1.01007 18.2973 0.533398 16.9453 0.533398 15.212C0.533398 13.9813 0.758732 12.8893 1.2094 11.936C1.6774 10.9827 2.31007 10.246 3.1074 9.726C3.92207 9.18866 4.84073 8.92 5.8634 8.92C6.97273 8.92 7.9434 9.18 8.7754 9.7C9.62473 10.22 10.2747 10.9567 10.7254 11.91C11.1934 12.8633 11.4274 13.964 11.4274 15.212V16.954H12.8574L13.0654 18.852L12.8574 20.698H11.4274C11.3581 22.726 10.7341 24.3553 9.5554 25.586C8.37673 26.8167 6.57407 27.432 4.1474 27.432H1.0534V23.688H4.1474ZM3.7054 15.03C3.7054 15.7407 3.87873 16.2693 4.2254 16.616C4.57207 16.9453 5.12673 17.11 5.8894 17.11H8.1254V15.134C8.1254 13.3313 7.3714 12.43 5.8634 12.43C5.15273 12.43 4.6154 12.6727 4.2514 13.158C3.8874 13.6433 3.7054 14.2673 3.7054 15.03ZM12.5858 16.954H13.2618C13.6085 16.954 13.8685 16.876 14.0418 16.72C14.2325 16.5467 14.3712 16.2693 14.4578 15.888L15.1338 13.392C15.5152 11.884 16.1565 10.7313 17.0578 9.934C17.9592 9.13666 19.0425 8.738 20.3078 8.738C21.3132 8.738 22.2058 9.01533 22.9858 9.57C23.7832 10.1073 24.4072 10.8613 24.8578 11.832C25.3085 12.7853 25.5338 13.86 25.5338 15.056C25.5338 15.6107 25.5772 16.018 25.6638 16.278C25.7678 16.538 25.9325 16.72 26.1578 16.824C26.3832 16.9107 26.7298 16.954 27.1978 16.954H27.5878L27.7958 18.774L27.5878 20.698H27.1978C25.9325 20.698 24.9098 20.3513 24.1298 19.658C23.6792 20.1607 23.1678 20.5333 22.5958 20.776C22.0412 21.036 21.4692 21.166 20.8798 21.166C20.2905 21.166 19.6665 21.0447 19.0078 20.802C18.3665 20.5767 17.4045 20.1607 16.1218 19.554C15.7232 19.918 15.2812 20.204 14.7958 20.412C14.3105 20.6027 13.8165 20.698 13.3138 20.698H12.5858V16.954ZM17.7078 16.408C18.6438 16.8413 19.3372 17.136 19.7878 17.292C20.2385 17.448 20.6458 17.526 21.0098 17.526C21.9632 17.526 22.4398 16.7113 22.4398 15.082C22.4398 14.198 22.2492 13.522 21.8678 13.054C21.4865 12.5687 20.9925 12.326 20.3858 12.326C19.8832 12.326 19.4412 12.508 19.0598 12.872C18.6785 13.236 18.4012 13.7647 18.2278 14.458L17.7078 16.408ZM35.5544 11.988V15.758C35.5544 16.2087 35.6757 16.5207 35.9184 16.694C36.161 16.8673 36.5424 16.954 37.0624 16.954H38.4664L38.6224 18.93L38.4664 20.698H37.0624C36.525 20.698 35.9617 20.594 35.3724 20.386C34.7831 20.1607 34.263 19.84 33.8124 19.424C33.327 19.84 32.7724 20.1607 32.1484 20.386C31.5417 20.594 30.9177 20.698 30.2764 20.698H27.3124V16.954H30.2764C31.0044 16.954 31.5157 16.8587 31.8104 16.668C32.105 16.46 32.2524 16.1133 32.2524 15.628V11.988H35.5544ZM25.5184 23.87H28.6384V26.99H25.5184V23.87ZM30.4064 23.87H33.5264V26.99H30.4064V23.87ZM38.205 16.954H40.103C40.7096 16.954 41.143 16.8327 41.403 16.59C41.6803 16.33 41.819 15.9227 41.819 15.368V11.988H45.121V15.446C45.121 15.966 45.2596 16.3473 45.537 16.59C45.8316 16.8327 46.2303 16.954 46.733 16.954C47.8596 16.954 48.423 16.408 48.423 15.316V11.988H51.725L51.699 15.446C51.699 16.4513 52.219 16.954 53.259 16.954C53.7963 16.954 54.221 16.8067 54.533 16.512C54.8623 16.2173 54.9923 15.8273 54.923 15.342C54.6803 13.7647 54.429 12.3433 54.169 11.078L57.289 10.298C57.8783 12.846 58.173 14.6573 58.173 15.732C58.173 16.5987 57.9996 17.4133 57.653 18.176C57.3063 18.9213 56.769 19.528 56.041 19.996C55.313 20.464 54.3856 20.698 53.259 20.698C52.6003 20.698 51.9936 20.568 51.439 20.308C50.8843 20.0307 50.4163 19.6667 50.035 19.216C49.6363 19.6667 49.1423 20.0307 48.553 20.308C47.981 20.568 47.3396 20.698 46.629 20.698C46.0396 20.698 45.4156 20.5507 44.757 20.256C44.1156 19.9613 43.6476 19.6147 43.353 19.216C43.041 19.6493 42.5816 20.0047 41.975 20.282C41.3856 20.5593 40.7183 20.698 39.973 20.698H38.205V16.954ZM66.1491 11.988V19.32C66.1491 21.816 65.4991 23.7573 64.1991 25.144C62.8991 26.548 61.0444 27.25 58.6351 27.25H56.9971V23.506H58.6351C59.7271 23.506 60.5677 23.376 61.1571 23.116C61.7637 22.8733 62.1884 22.4487 62.4311 21.842C62.6911 21.2527 62.8211 20.412 62.8211 19.32V11.988H66.1491ZM79.2433 12.872L79.4253 13.314C79.8587 14.2673 80.2313 15.004 80.5433 15.524C80.8727 16.0267 81.202 16.3907 81.5313 16.616C81.878 16.8413 82.2767 16.954 82.7273 16.954H83.1693L83.3513 18.878L83.1693 20.698H82.7273C81.254 20.698 79.9887 20.1173 78.9313 18.956C77.874 20.1173 76.4093 20.698 74.5373 20.698H73.2113C72.154 20.698 71.2093 20.516 70.3773 20.152C69.5627 19.788 68.9213 19.398 68.4533 18.982L70.0133 15.992C70.3253 16.2 70.7587 16.4167 71.3133 16.642C71.8853 16.85 72.518 16.954 73.2113 16.954H74.5373C75.1093 16.954 75.5513 16.9193 75.8633 16.85C76.1753 16.7633 76.4093 16.616 76.5653 16.408C76.6867 16.2173 76.7473 16.0527 76.7473 15.914C76.7473 15.6367 76.574 15.1427 76.2273 14.432L73.4713 8.452L76.4873 6.892L79.2433 12.872ZM82.9179 16.954H83.5939C83.9405 16.954 84.2005 16.876 84.3739 16.72C84.5645 16.5467 84.7032 16.2693 84.7899 15.888L85.4659 13.392C85.8472 11.884 86.4885 10.7313 87.3899 9.934C88.2912 9.13666 89.3745 8.738 90.6399 8.738C91.6452 8.738 92.5379 9.01533 93.3179 9.57C94.1152 10.1073 94.7392 10.8613 95.1899 11.832C95.6405 12.7853 95.8659 13.86 95.8659 15.056C95.8659 16.4947 95.6319 17.6733 95.1639 18.592C94.6959 19.4933 94.1065 20.152 93.3959 20.568C92.7025 20.9667 91.9745 21.166 91.2119 21.166C90.6225 21.166 89.9985 21.0447 89.3399 20.802C88.6985 20.5767 87.7365 20.1607 86.4539 19.554C86.0552 19.918 85.6132 20.204 85.1279 20.412C84.6425 20.6027 84.1485 20.698 83.6459 20.698H82.9179V16.954ZM88.0399 16.408C88.9759 16.8413 89.6692 17.136 90.1199 17.292C90.5705 17.448 90.9779 17.526 91.3419 17.526C92.2952 17.526 92.7719 16.7113 92.7719 15.082C92.7719 14.198 92.5812 13.522 92.1999 13.054C91.8185 12.5687 91.3245 12.326 90.7179 12.326C90.2152 12.326 89.7732 12.508 89.3919 12.872C89.0105 13.236 88.7332 13.7647 88.5599 14.458L88.0399 16.408ZM107.284 23.688C108.359 23.688 109.173 23.5927 109.728 23.402C110.283 23.2287 110.664 22.9253 110.872 22.492C111.097 22.076 111.227 21.478 111.262 20.698H109.026C107.379 20.698 106.071 20.2213 105.1 19.268C104.147 18.2973 103.67 16.9453 103.67 15.212C103.67 13.9813 103.895 12.8893 104.346 11.936C104.814 10.9827 105.447 10.246 106.244 9.726C107.059 9.18866 107.977 8.92 109 8.92C110.109 8.92 111.08 9.18 111.912 9.7C112.761 10.22 113.411 10.9567 113.862 11.91C114.33 12.8633 114.564 13.964 114.564 15.212V16.954H115.994L116.202 18.852L115.994 20.698H114.564C114.495 22.726 113.871 24.3553 112.692 25.586C111.513 26.8167 109.711 27.432 107.284 27.432H104.19V23.688H107.284ZM106.842 15.03C106.842 15.7407 107.015 16.2693 107.362 16.616C107.709 16.9453 108.263 17.11 109.026 17.11H111.262V15.134C111.262 13.3313 110.508 12.43 109 12.43C108.289 12.43 107.752 12.6727 107.388 13.158C107.024 13.6433 106.842 14.2673 106.842 15.03ZM128.229 5.748L121.443 8.79L124.901 12.352C125.421 12.8893 125.811 13.4787 126.071 14.12C126.331 14.744 126.461 15.3853 126.461 16.044C126.461 16.8587 126.261 17.6213 125.863 18.332C125.481 19.0427 124.909 19.6147 124.147 20.048C123.401 20.4813 122.526 20.698 121.521 20.698H115.723V16.954H121.599C122.049 16.954 122.396 16.8673 122.639 16.694C122.899 16.5033 123.029 16.2607 123.029 15.966C123.029 15.602 122.847 15.238 122.483 14.874L117.855 10.194L118.661 6.008L126.903 2.342L128.229 5.748ZM118.973 3.018L125.473 0.183997L125.941 1.432L118.817 4.526L118.973 3.018ZM131.989 23.688C133.064 23.688 133.879 23.5927 134.433 23.402C134.988 23.2287 135.369 22.9253 135.577 22.492C135.803 22.076 135.933 21.478 135.967 20.698H133.731C132.085 20.698 130.776 20.2213 129.805 19.268C128.852 18.2973 128.375 16.9453 128.375 15.212C128.375 13.9813 128.601 12.8893 129.051 11.936C129.519 10.9827 130.152 10.246 130.949 9.726C131.764 9.18866 132.683 8.92 133.705 8.92C134.815 8.92 135.785 9.18 136.617 9.7C137.467 10.22 138.117 10.9567 138.567 11.91C139.035 12.8633 139.269 13.964 139.269 15.212V16.954H140.699L140.907 18.852L140.699 20.698H139.269C139.2 22.726 138.576 24.3553 137.397 25.586C136.219 26.8167 134.416 27.432 131.989 27.432H128.895V23.688H131.989ZM131.547 15.03C131.547 15.7407 131.721 16.2693 132.067 16.616C132.414 16.9453 132.969 17.11 133.731 17.11H135.967V15.134C135.967 13.3313 135.213 12.43 133.705 12.43C132.995 12.43 132.457 12.6727 132.093 13.158C131.729 13.6433 131.547 14.2673 131.547 15.03ZM146.642 15.628C146.642 16.772 146.39 17.7253 145.888 18.488C145.385 19.2507 144.761 19.814 144.016 20.178C143.27 20.5247 142.542 20.698 141.832 20.698H140.428V16.954H141.65C142.776 16.954 143.34 16.3993 143.34 15.29V3.33H146.642V15.628Z" fill="#F5F5F5"/>
</svg>
