<svg width="31" height="31" viewBox="0 0 31 31" fill="none" xmlns="http://www.w3.org/2000/svg">
<g id="Group 363">
<circle id="Ellipse 52" cx="15.9844" cy="15.3281" r="15" fill="#FDD835"/>
<g id="Ellipse 53" filter="url(#filter0_ii_1_2110)">
<circle cx="15.9842" cy="15.3279" r="13.4204" fill="#FFB800"/>
</g>
<g id="Vector" filter="url(#filter1_d_1_2110)">
<path d="M9.06664 8.41136C9.53795 7.17146 10.7239 6.2498 12.0322 6.06369C12.6566 5.96782 13.3003 6.06289 13.8852 6.2925C14.6329 6.57528 15.304 7.01516 15.9912 7.41477C18.1302 8.62969 20.2418 9.89375 22.3881 11.0974C23.0487 11.4986 23.7585 11.8523 24.3039 12.4122C20.241 14.8042 16.1902 17.2179 12.1313 19.6171C11.4908 19.9233 10.9728 20.4937 10.8383 21.2043C15.2403 18.6117 19.6215 15.9829 24.0235 13.3919C24.0356 13.5345 23.9808 13.6352 23.8576 13.6916C19.5079 16.2729 15.1582 18.855 10.8085 21.4371C10.8068 21.6796 10.8318 21.9205 10.8794 22.159C15.2621 19.5608 19.636 16.9488 24.026 14.3635C24.0364 14.5045 23.9825 14.6036 23.8624 14.6608C21.0894 16.3035 18.3195 17.9519 15.5473 19.5946C15.681 19.7823 15.8156 19.9708 15.9485 20.1602C18.6386 18.5706 21.3149 16.9593 24.0123 15.3851C24.009 15.4366 24.0034 15.5389 24.0002 15.5905C21.3456 17.1639 18.6926 18.739 16.0395 20.3156C16.0412 20.6145 16.0404 20.9134 16.0395 21.2123C18.699 19.6325 21.356 18.0469 24.0227 16.4783C24.0654 16.7378 23.7915 16.8022 23.6248 16.9182C21.095 18.4167 18.5669 19.9177 16.0395 21.4202C16.0404 21.6643 16.0404 21.9076 16.0395 22.1517C19.0317 20.3728 22.0279 18.602 25.0226 16.8272C24.3015 18.0767 22.9561 18.7237 21.7476 19.4045C19.8511 20.5163 17.9361 21.595 16.0387 22.7068C16.0444 23.3473 16.0355 23.9886 16.0444 24.6291C15.7552 24.3407 15.4571 24.0611 15.1719 23.7687C14.8609 24.0539 14.5515 24.3407 14.2454 24.6307C14.2478 24.3213 14.2454 24.0112 14.2494 23.7018C13.4808 24.0643 12.6018 24.2359 11.764 24.0361C10.6804 23.8114 9.76434 23.0404 9.231 22.0873C8.81689 21.3259 8.7895 20.4357 8.78628 19.5898C8.78467 16.5275 8.78628 13.466 8.78547 10.4037C8.78467 9.73182 8.83059 9.04621 9.06664 8.41136ZM13.2609 11.0708C12.8927 11.2617 12.8556 11.7355 12.829 12.1012C12.8161 13.0406 12.8323 13.98 12.8178 14.9194C12.8363 15.2618 12.8605 15.6727 13.1537 15.9015C13.4599 16.0948 13.8417 15.9651 14.1479 15.8354C14.7223 15.5655 15.2516 15.211 15.8075 14.9073C16.1572 14.6882 16.5407 14.5206 16.8645 14.262C17.2094 13.9881 17.3342 13.4668 17.1207 13.0761C16.9669 12.7707 16.6551 12.6007 16.3707 12.4372C15.6891 12.0577 15.0244 11.6493 14.3412 11.2738C14.0125 11.1208 13.6234 10.9137 13.2609 11.0708ZM10.9358 22.333C11.0332 22.5417 11.1484 22.7423 11.287 22.9276C12.2433 22.358 13.202 21.7908 14.1592 21.222C14.0359 21.027 13.9159 20.8313 13.7966 20.6347C12.8427 21.2011 11.8888 21.7666 10.9358 22.333ZM11.4063 23.0629C11.6206 23.2563 11.8623 23.415 12.1257 23.5334C12.8331 23.1113 13.5428 22.6947 14.2486 22.271C14.2462 21.9721 14.2462 21.6732 14.2486 21.3743C13.3036 21.9406 12.3545 22.5022 11.4063 23.0629ZM12.3537 23.614C13.0119 23.7775 13.7016 23.5987 14.2478 23.2128C14.2462 22.9687 14.2462 22.7237 14.2494 22.4796C13.6194 22.8615 12.9789 23.2257 12.3537 23.614Z" fill="#FFE675"/>
</g>
</g>
<defs>
<filter id="filter0_ii_1_2110" x="2.56378" y="1.90741" width="26.8409" height="26.8409" filterUnits="userSpaceOnUse" color-interpolation-filters="sRGB">
<feFlood flood-opacity="0" result="BackgroundImageFix"/>
<feBlend mode="normal" in="SourceGraphic" in2="BackgroundImageFix" result="shape"/>
<feColorMatrix in="SourceAlpha" type="matrix" values="0 0 0 0 0 0 0 0 0 0 0 0 0 0 0 0 0 0 127 0" result="hardAlpha"/>
<feOffset dx="1"/>
<feComposite in2="hardAlpha" operator="arithmetic" k2="-1" k3="1"/>
<feColorMatrix type="matrix" values="0 0 0 0 0.960784 0 0 0 0 0.494118 0 0 0 0 0.027451 0 0 0 0.53 0"/>
<feBlend mode="normal" in2="shape" result="effect1_innerShadow_1_2110"/>
<feColorMatrix in="SourceAlpha" type="matrix" values="0 0 0 0 0 0 0 0 0 0 0 0 0 0 0 0 0 0 127 0" result="hardAlpha"/>
<feOffset dx="-1"/>
<feComposite in2="hardAlpha" operator="arithmetic" k2="-1" k3="1"/>
<feColorMatrix type="matrix" values="0 0 0 0 0.960784 0 0 0 0 0.494118 0 0 0 0 0.027451 0 0 0 0.53 0"/>
<feBlend mode="normal" in2="effect1_innerShadow_1_2110" result="effect2_innerShadow_1_2110"/>
</filter>
<filter id="filter1_d_1_2110" x="7.78546" y="5.52664" width="18.2371" height="20.6041" filterUnits="userSpaceOnUse" color-interpolation-filters="sRGB">
<feFlood flood-opacity="0" result="BackgroundImageFix"/>
<feColorMatrix in="SourceAlpha" type="matrix" values="0 0 0 0 0 0 0 0 0 0 0 0 0 0 0 0 0 0 127 0" result="hardAlpha"/>
<feOffset dy="0.5"/>
<feGaussianBlur stdDeviation="0.5"/>
<feComposite in2="hardAlpha" operator="out"/>
<feColorMatrix type="matrix" values="0 0 0 0 0.795 0 0 0 0 0.4134 0 0 0 0 0.0318001 0 0 0 0.38 0"/>
<feBlend mode="normal" in2="BackgroundImageFix" result="effect1_dropShadow_1_2110"/>
<feBlend mode="normal" in="SourceGraphic" in2="effect1_dropShadow_1_2110" result="shape"/>
</filter>
</defs>
</svg>
