<svg width="32" height="32" viewBox="0 0 32 32" fill="none" xmlns="http://www.w3.org/2000/svg">
<path opacity="0.4" d="M21.5866 2.66699H10.4133C5.55996 2.66699 2.66663 5.56033 2.66663 10.4137V21.5737C2.66663 26.4403 5.55996 29.3337 10.4133 29.3337H21.5733C26.4266 29.3337 29.32 26.4403 29.32 21.587V10.4137C29.3333 5.56033 26.44 2.66699 21.5866 2.66699Z" fill="#FFB800"/>
<path d="M16 21.1738C18.8571 21.1738 21.1733 18.8576 21.1733 16.0005C21.1733 13.1433 18.8571 10.8271 16 10.8271C13.1428 10.8271 10.8267 13.1433 10.8267 16.0005C10.8267 18.8576 13.1428 21.1738 16 21.1738Z" fill="#FFB800"/>
<path d="M22.6666 10.0004C22.3066 10.0004 21.9733 9.86703 21.7199 9.61369C21.5999 9.48036 21.5066 9.33369 21.4399 9.17369C21.3733 9.01369 21.3333 8.84036 21.3333 8.66703C21.3333 8.49369 21.3733 8.32036 21.4399 8.16036C21.5066 7.98703 21.5999 7.85369 21.7199 7.72036C22.0266 7.41369 22.4933 7.26703 22.9199 7.36036C23.0133 7.37369 23.0933 7.40036 23.1733 7.44036C23.2533 7.46703 23.3333 7.50703 23.4133 7.56036C23.4799 7.60036 23.5466 7.66703 23.6133 7.72036C23.7333 7.85369 23.8266 7.98703 23.8933 8.16036C23.9599 8.32036 23.9999 8.49369 23.9999 8.66703C23.9999 8.84036 23.9599 9.01369 23.8933 9.17369C23.8266 9.33369 23.7333 9.48036 23.6133 9.61369C23.4799 9.73369 23.3333 9.82703 23.1733 9.89369C23.0133 9.96036 22.8399 10.0004 22.6666 10.0004Z" fill="#FFB800"/>
</svg>
