<svg width="32" height="32" viewBox="0 0 32 32" fill="none" xmlns="http://www.w3.org/2000/svg">
<g id="vuesax/bulk/instagram">
<g id="vuesax/bulk/instagram_2">
<g id="instagram">
<path id="Vector" opacity="0.4" d="M21.5866 2.6665H10.4133C5.55996 2.6665 2.66663 5.55984 2.66663 10.4132V21.5732C2.66663 26.4398 5.55996 29.3332 10.4133 29.3332H21.5733C26.4266 29.3332 29.32 26.4398 29.32 21.5865V10.4132C29.3333 5.55984 26.44 2.6665 21.5866 2.6665Z" fill="#747474"/>
<path id="Vector_2" d="M16 21.1733C18.8571 21.1733 21.1733 18.8571 21.1733 16C21.1733 13.1428 18.8571 10.8267 16 10.8267C13.1428 10.8267 10.8267 13.1428 10.8267 16C10.8267 18.8571 13.1428 21.1733 16 21.1733Z" fill="#747474"/>
<path id="Vector_3" d="M22.6667 9.99987C22.3067 9.99987 21.9734 9.86654 21.72 9.61321C21.6 9.47987 21.5067 9.33321 21.44 9.17321C21.3734 9.01321 21.3334 8.83987 21.3334 8.66654C21.3334 8.49321 21.3734 8.31987 21.44 8.15987C21.5067 7.98654 21.6 7.85321 21.72 7.71987C22.0267 7.41321 22.4934 7.26654 22.92 7.35987C23.0134 7.37321 23.0934 7.39987 23.1734 7.43987C23.2534 7.46654 23.3334 7.50654 23.4134 7.55987C23.48 7.59987 23.5467 7.66654 23.6134 7.71987C23.7334 7.85321 23.8267 7.98654 23.8934 8.15987C23.96 8.31987 24 8.49321 24 8.66654C24 8.83987 23.96 9.01321 23.8934 9.17321C23.8267 9.33321 23.7334 9.47987 23.6134 9.61321C23.48 9.73321 23.3334 9.82654 23.1734 9.89321C23.0134 9.95987 22.84 9.99987 22.6667 9.99987Z" fill="#747474"/>
</g>
</g>
</g>
</svg>
