<svg width="32" height="32" viewBox="0 0 32 32" fill="none" xmlns="http://www.w3.org/2000/svg">
<g id="vuesax/bulk/instagram">
<g id="vuesax/bulk/instagram_2">
<g id="instagram">
<path id="Vector" opacity="0.4" d="M21.5868 2.6665H10.4134C5.56008 2.6665 2.66675 5.55984 2.66675 10.4132V21.5732C2.66675 26.4398 5.56008 29.3332 10.4134 29.3332H21.5734C26.4268 29.3332 29.3201 26.4398 29.3201 21.5865V10.4132C29.3334 5.55984 26.4401 2.6665 21.5868 2.6665Z" fill="#FFB800"/>
<g id="Page-1">
<path id="linkedin-[#161]" fill-rule="evenodd" clip-rule="evenodd" d="M22 20.9999H19.6V16.8005C19.6 15.6485 19.0918 15.0058 18.1804 15.0058C17.1886 15.0058 16.6 15.6755 16.6 16.8005V20.9999H14.2V13.1999H16.6V14.0771C16.6 14.0771 17.353 12.7558 19.0498 12.7558C20.7472 12.7558 22 13.7916 22 15.9348V20.9999ZM11.4652 12.3524C10.6558 12.3524 10 11.6913 10 10.8759C10 10.0611 10.6558 9.3999 11.4652 9.3999C12.274 9.3999 12.9298 10.0611 12.9298 10.8759C12.9304 11.6913 12.274 12.3524 11.4652 12.3524ZM10 20.9999H13V13.1999H10V20.9999Z" fill="#FFB800"/>
</g>
</g>
</g>
</g>
</svg>
