<svg width="16" height="17" viewBox="0 0 16 17" fill="none" xmlns="http://www.w3.org/2000/svg">
<g id="vuesax/outline/search-normal">
<g id="search-normal">
<path id="Vector" d="M8.33341 14.9999C12.1001 14.9999 15.1667 11.9333 15.1667 8.16659C15.1667 4.39992 12.1001 1.33325 8.33341 1.33325C4.56675 1.33325 1.50008 4.39992 1.50008 8.16659C1.50008 11.9333 4.56675 14.9999 8.33341 14.9999ZM8.33341 2.33325C11.5534 2.33325 14.1667 4.95325 14.1667 8.16659C14.1667 11.3799 11.5534 13.9999 8.33341 13.9999C5.11341 13.9999 2.50008 11.3799 2.50008 8.16659C2.50008 4.95325 5.11341 2.33325 8.33341 2.33325Z" fill="#838383"/>
<path id="Vector_2" d="M1.33337 15.6666C1.46004 15.6666 1.58671 15.62 1.68671 15.52L3.02004 14.1866C3.21337 13.9933 3.21337 13.6733 3.02004 13.48C2.82671 13.2866 2.5067 13.2866 2.31337 13.48L0.980038 14.8133C0.786705 15.0066 0.786705 15.3266 0.980038 15.52C1.08004 15.62 1.20671 15.6666 1.33337 15.6666Z" fill="#838383"/>
</g>
</g>
</svg>
