<svg width="27" height="28" viewBox="0 0 27 28" fill="none" xmlns="http://www.w3.org/2000/svg">
<g id="Group 517">
<path id="Vector" opacity="0.4" d="M13.5 27.335C20.8648 27.335 26.835 21.3648 26.835 14C26.835 6.63532 20.8648 0.665039 13.5 0.665039C6.13532 0.665039 0.165039 6.63532 0.165039 14C0.165039 21.3648 6.13532 27.335 13.5 27.335Z" fill="#FFB800"/>
<path id="Vector_2" d="M20.155 8.4839C20.2737 7.71668 19.5442 7.11111 18.862 7.41062L5.27522 13.3759C4.78603 13.5907 4.82181 14.3318 5.32918 14.4933L8.13108 15.3856C8.66591 15.5559 9.24494 15.4678 9.71195 15.1452L16.0291 10.7809C16.2196 10.6492 16.4273 10.9201 16.2645 11.0878L11.7172 15.776C11.2761 16.2309 11.3637 17.0015 11.8943 17.3342L16.9854 20.5268C17.5565 20.8849 18.291 20.5252 18.3978 19.8351L20.155 8.4839Z" fill="#FFB800"/>
</g>
</svg>
