<svg width="28" height="28" viewBox="0 0 28 28" fill="none" xmlns="http://www.w3.org/2000/svg">
<g id="Group 517">
<path id="Vector" opacity="0.4" d="M14 27.335C21.3648 27.335 27.335 21.3648 27.335 14C27.335 6.63532 21.3648 0.665039 14 0.665039C6.63532 0.665039 0.665039 6.63532 0.665039 14C0.665039 21.3648 6.63532 27.335 14 27.335Z" fill="#747474"/>
<path id="Vector_2" d="M20.6548 8.4839C20.7735 7.71668 20.0441 7.11111 19.3619 7.41062L5.7751 13.3759C5.28591 13.5907 5.32169 14.3318 5.82906 14.4933L8.63096 15.3856C9.16579 15.5559 9.74482 15.4678 10.2118 15.1452L16.529 10.7809C16.7195 10.6492 16.9271 10.9201 16.7644 11.0878L12.2171 15.776C11.776 16.2309 11.8636 17.0015 12.3942 17.3342L17.4853 20.5268C18.0563 20.8849 18.7909 20.5252 18.8977 19.8351L20.6548 8.4839Z" fill="#747474"/>
</g>
</svg>
