<svg width="25" height="25" viewBox="0 0 25 25" fill="none" xmlns="http://www.w3.org/2000/svg">
<g id="vuesax/linear/wallet-add">
<g id="vuesax/linear/wallet-add_2">
<path id="Vector" d="M18.7358 7.37809C18.4958 7.33809 18.2458 7.32811 17.9858 7.32811H7.98578C7.70578 7.32811 7.43578 7.3481 7.17578 7.3881C7.31578 7.1081 7.51578 6.84813 7.75578 6.60813L11.0058 3.34812C12.3758 1.98812 14.5958 1.98812 15.9658 3.34812L17.7158 5.11808C18.3558 5.74808 18.6958 6.54809 18.7358 7.37809Z" stroke="#131313" stroke-linecap="round" stroke-linejoin="round"/>
<g id="Group">
<path id="Vector_2" d="M9.98438 19.3281C9.98438 20.0781 9.77438 20.7881 9.40438 21.3881C8.71438 22.5481 7.44438 23.3281 5.98438 23.3281C4.52437 23.3281 3.25438 22.5481 2.56438 21.3881C2.19438 20.7881 1.98438 20.0781 1.98438 19.3281C1.98438 17.1181 3.77437 15.3281 5.98438 15.3281C8.19438 15.3281 9.98438 17.1181 9.98438 19.3281Z" stroke="#131313" stroke-miterlimit="10" stroke-linecap="round" stroke-linejoin="round"/>
<g id="Group_2">
<path id="Vector_3" d="M7.47609 19.3076H4.49609" stroke="#131313" stroke-miterlimit="10" stroke-linecap="round" stroke-linejoin="round"/>
<path id="Vector_4" d="M5.98438 17.8477V20.8376" stroke="#131313" stroke-miterlimit="10" stroke-linecap="round" stroke-linejoin="round"/>
</g>
</g>
<path id="Vector_5" d="M22.9844 12.3281V17.3281C22.9844 20.3281 20.9844 22.3281 17.9844 22.3281H8.61438C8.92438 22.0681 9.19438 21.7481 9.40438 21.3881C9.77438 20.7881 9.98438 20.0781 9.98438 19.3281C9.98438 17.1181 8.19438 15.3281 5.98438 15.3281C4.78437 15.3281 3.71438 15.8581 2.98438 16.6881V12.3281C2.98438 9.60812 4.62438 7.70812 7.17438 7.38812C7.43438 7.34812 7.70437 7.32812 7.98438 7.32812H17.9844C18.2444 7.32812 18.4944 7.33811 18.7344 7.37811C21.3144 7.67811 22.9844 9.58812 22.9844 12.3281Z" stroke="#131313" stroke-linecap="round" stroke-linejoin="round"/>
<path id="Vector_6" d="M22.9844 12.8281H19.9844C18.8844 12.8281 17.9844 13.7281 17.9844 14.8281C17.9844 15.9281 18.8844 16.8281 19.9844 16.8281H22.9844" stroke="#131313" stroke-linecap="round" stroke-linejoin="round"/>
</g>
</g>
</svg>
