<svg width="28" height="28" viewBox="0 0 28 28" fill="none" xmlns="http://www.w3.org/2000/svg">
<g id="Group 16">
<path id="Vector" opacity="0.4" d="M7.26086 25.5064C9.24722 26.6664 11.5535 27.333 14.0065 27.333C21.512 27.333 27.751 20.7067 27.3111 13.2137C26.8578 5.4807 19.8322 -0.479021 11.7401 0.85425C6.16767 1.77421 1.7017 6.294 0.835169 11.8671C0.32858 15.0936 0.995174 18.1468 2.44828 20.6667L1.26178 25.0798C0.995154 26.0797 1.91499 26.9864 2.9015 26.7064L7.26086 25.5064Z" fill="#747474"/>
<g id="Group">
<path id="Vector_2" d="M20.672 18.2271C20.672 18.4671 20.6186 18.7204 20.4987 18.9604C20.3787 19.2004 20.2321 19.427 20.0454 19.6404C19.7122 20.0004 19.3522 20.267 18.9523 20.427C18.5523 20.6003 18.1123 20.6803 17.6458 20.6803C16.9659 20.6803 16.2326 20.5203 15.4727 20.187C14.6995 19.8537 13.9397 19.4137 13.1798 18.8671C12.4066 18.3071 11.6867 17.6805 10.9935 17.0005C10.3002 16.3072 9.68704 15.5739 9.12713 14.8139C8.58054 14.054 8.14056 13.294 7.8206 12.534C7.50065 11.7741 7.3407 11.0408 7.3407 10.3475C7.3407 9.89416 7.42068 9.45418 7.58065 9.0542C7.74063 8.64088 7.99394 8.26756 8.35389 7.93425C8.78049 7.5076 9.24706 7.30762 9.74031 7.30762C9.92695 7.30762 10.1136 7.34761 10.2869 7.42761C10.4602 7.5076 10.6202 7.6276 10.7402 7.80092L12.2733 10.0008C12.3933 10.1741 12.4866 10.3208 12.5399 10.4675C12.6066 10.6141 12.6332 10.7475 12.6332 10.8808C12.6332 11.0408 12.5799 11.2008 12.4866 11.3608C12.3932 11.5207 12.2733 11.6807 12.1133 11.8407L11.6067 12.374C11.5267 12.454 11.5001 12.534 11.5001 12.6407C11.5001 12.694 11.5134 12.7474 11.5267 12.8007C11.5534 12.854 11.5667 12.894 11.58 12.934C11.7 13.1607 11.9134 13.4407 12.2066 13.7873C12.5133 14.134 12.8332 14.4939 13.1798 14.8406C13.5398 15.2006 13.8863 15.5206 14.2463 15.8272C14.5929 16.1205 14.8862 16.3205 15.1129 16.4405C15.1529 16.4539 15.1928 16.4805 15.2328 16.4939C15.2861 16.5205 15.3395 16.5205 15.4061 16.5205C15.5261 16.5205 15.6061 16.4805 15.6861 16.4005L16.1927 15.8939C16.366 15.7205 16.526 15.6006 16.6726 15.5206C16.8326 15.4272 16.9792 15.3739 17.1525 15.3739C17.2858 15.3739 17.4191 15.4006 17.5658 15.4672C17.7124 15.5339 17.8724 15.6139 18.0324 15.7339L20.2454 17.3071C20.4187 17.4271 20.5387 17.5738 20.6187 17.7338C20.632 17.8805 20.672 18.0404 20.672 18.2271Z" fill="#747474"/>
</g>
</g>
</svg>
