<svg width="28" height="28" viewBox="0 0 28 28" fill="none" xmlns="http://www.w3.org/2000/svg">
<g id="Group 16">
<path id="Vector" opacity="0.4" d="M7.26086 25.5064C9.24722 26.6664 11.5535 27.333 14.0065 27.333C21.512 27.333 27.751 20.7067 27.3111 13.2137C26.8578 5.4807 19.8322 -0.479021 11.7401 0.85425C6.16767 1.77421 1.7017 6.294 0.835169 11.8671C0.32858 15.0936 0.995174 18.1468 2.44828 20.6667L1.26178 25.0798C0.995154 26.0797 1.91499 26.9864 2.9015 26.7064L7.26086 25.5064Z" fill="#FFB800"/>
<g id="Group">
<path id="Vector_2" d="M20.6721 18.2271C20.6721 18.4671 20.6188 18.7204 20.4988 18.9604C20.3788 19.2004 20.2322 19.427 20.0456 19.6404C19.7123 20.0004 19.3523 20.267 18.9524 20.427C18.5525 20.6003 18.1125 20.6803 17.6459 20.6803C16.966 20.6803 16.2328 20.5203 15.4729 20.187C14.6997 19.8537 13.9398 19.4137 13.1799 18.8671C12.4067 18.3071 11.6868 17.6805 10.9936 17.0005C10.3004 16.3072 9.68716 15.5739 9.12725 14.8139C8.58067 14.054 8.14068 13.294 7.82073 12.534C7.50078 11.7741 7.34082 11.0408 7.34082 10.3475C7.34082 9.89416 7.4208 9.45418 7.58077 9.0542C7.74075 8.64088 7.99407 8.26756 8.35401 7.93425C8.78061 7.5076 9.24718 7.30762 9.74043 7.30762C9.92707 7.30762 10.1138 7.34761 10.2871 7.42761C10.4604 7.5076 10.6203 7.6276 10.7403 7.80092L12.2734 10.0008C12.3934 10.1741 12.4867 10.3208 12.5401 10.4675C12.6067 10.6141 12.6333 10.7475 12.6333 10.8808C12.6333 11.0408 12.58 11.2008 12.4867 11.3608C12.3934 11.5207 12.2734 11.6807 12.1134 11.8407L11.6068 12.374C11.5269 12.454 11.5002 12.534 11.5002 12.6407C11.5002 12.694 11.5135 12.7474 11.5269 12.8007C11.5535 12.854 11.5668 12.894 11.5802 12.934C11.7001 13.1607 11.9135 13.4407 12.2068 13.7873C12.5134 14.134 12.8333 14.4939 13.1799 14.8406C13.5399 15.2006 13.8865 15.5206 14.2464 15.8272C14.593 16.1205 14.8863 16.3205 15.113 16.4405C15.153 16.4539 15.1929 16.4805 15.2329 16.4939C15.2862 16.5205 15.3396 16.5205 15.4062 16.5205C15.5262 16.5205 15.6062 16.4805 15.6862 16.4005L16.1928 15.8939C16.3661 15.7205 16.5261 15.6006 16.6727 15.5206C16.8327 15.4272 16.9793 15.3739 17.1526 15.3739C17.2859 15.3739 17.4192 15.4006 17.5659 15.4672C17.7125 15.5339 17.8726 15.6139 18.0325 15.7339L20.2455 17.3071C20.4188 17.4271 20.5388 17.5738 20.6188 17.7338C20.6321 17.8805 20.6721 18.0404 20.6721 18.2271Z" fill="#FFB800"/>
</g>
</g>
</svg>
