<svg width="33" height="32" viewBox="0 0 33 32" fill="none" xmlns="http://www.w3.org/2000/svg">
<path opacity="0.4" fill-rule="evenodd" clip-rule="evenodd" d="M31.5319 6.63801C30.977 5.90682 30.0311 5.33765 29.024 5.14922C26.0641 4.58713 7.59817 4.58553 4.63982 5.14922C3.83227 5.3006 3.11317 5.66653 2.49544 6.23506C-0.107383 8.65088 0.708219 21.6062 1.3356 23.7047C1.59942 24.6131 1.94047 25.2682 2.36999 25.6982C2.92337 26.2667 3.68104 26.6582 4.55133 26.8337C6.98847 27.3378 19.5441 27.6197 28.9725 26.9094C29.8412 26.758 30.6102 26.354 31.2166 25.7613C33.6232 23.3551 33.4591 9.67228 31.5319 6.63801Z" fill="#FFB800"/>
<path d="M13.6048 12.484V19.5741C13.6039 19.7229 13.6428 19.8693 13.7174 19.998C13.792 20.1268 13.8996 20.2334 14.0291 20.3066C14.1586 20.3799 14.3054 20.4173 14.4542 20.4149C14.603 20.4126 14.7485 20.3705 14.8756 20.2931L20.7784 16.7481C20.8992 16.671 20.9987 16.5647 21.0676 16.4391C21.1365 16.3134 21.1726 16.1724 21.1726 16.0291C21.1726 15.8857 21.1365 15.7447 21.0676 15.619C20.9987 15.4934 20.8992 15.3871 20.7784 15.31L14.8756 11.765C14.7485 11.6876 14.603 11.6456 14.4542 11.6432C14.3054 11.6408 14.1586 11.6782 14.0291 11.7515C13.8996 11.8248 13.792 11.9313 13.7174 12.0601C13.6428 12.1889 13.6039 12.3352 13.6048 12.484Z" fill="#FFB800"/>
</svg>
