<svg width="33" height="32" viewBox="0 0 33 32" fill="none" xmlns="http://www.w3.org/2000/svg">
<g id="vuesax/bulk/instagram">
<g id="Page-1">
<g id="Dribbble-Light-Preview">
<g id="icons">
<path id="youtube-[#168]" opacity="0.4" fill-rule="evenodd" clip-rule="evenodd" d="M31.532 6.63411C30.977 5.90292 30.0311 5.33375 29.0241 5.14531C26.0641 4.58322 7.59818 4.58162 4.63983 5.14531C3.83228 5.2967 3.11318 5.66262 2.49545 6.23115C-0.107385 8.64698 0.708219 21.6023 1.3356 23.7009C1.59942 24.6092 1.94048 25.2643 2.36999 25.6943C2.92338 26.2628 3.68105 26.6543 4.55134 26.8298C6.98848 27.334 19.5442 27.6158 28.9726 26.9056C29.8413 26.7542 30.6102 26.3501 31.2167 25.7574C33.6233 23.3512 33.4592 9.66838 31.532 6.63411Z" fill="#747474"/>
</g>
</g>
<path id="secondary" d="M13.6048 12.4826V19.5726C13.6039 19.7214 13.6428 19.8678 13.7174 19.9966C13.792 20.1254 13.8996 20.2319 14.0291 20.3052C14.1586 20.3785 14.3054 20.4159 14.4542 20.4135C14.603 20.4111 14.7485 20.369 14.8756 20.2917L20.7784 16.7466C20.8992 16.6696 20.9987 16.5633 21.0676 16.4376C21.1365 16.3119 21.1727 16.1709 21.1727 16.0276C21.1727 15.8843 21.1365 15.7433 21.0676 15.6176C20.9987 15.4919 20.8992 15.3856 20.7784 15.3086L14.8756 11.7635C14.7485 11.6861 14.603 11.6441 14.4542 11.6417C14.3054 11.6393 14.1586 11.6767 14.0291 11.75C13.8996 11.8233 13.792 11.9298 13.7174 12.0586C13.6428 12.1874 13.6039 12.3338 13.6048 12.4826Z" fill="#747474"/>
</g>
</g>
</svg>
