<svg width="231" height="242" viewBox="0 0 231 242" fill="none" xmlns="http://www.w3.org/2000/svg">
<rect width="214" height="211" transform="translate(16.75 0.955078)" fill="#131313"/>
<rect width="144" height="201" transform="translate(51.4254 5.6709)" fill="#131313"/>
<g filter="url(#filter0_f_1_2025)">
<path d="M63.2924 129.907C61.563 135.394 61.1298 157.221 61.1295 167.449C81.1912 175.15 121.315 187.953 121.315 177.557C124.018 147.054 120.233 142.001 118.612 138.03C116.99 134.059 65.4541 123.049 63.2924 129.907Z" fill="#FFB800"/>
</g>
<g filter="url(#filter1_f_1_2025)">
<path d="M172.504 133.691C172.597 145.517 160.208 150.92 154.002 152.143C155.084 112.125 160.531 125.078 161.838 98.6344C163.145 72.1911 170.855 63.0276 157.786 46.2715C147.331 32.8666 118.403 27.4209 105.246 26.3737C113.916 25.5446 134.67 25.9153 148.334 34.031C170.349 48.0035 167.733 54.7702 167.777 92.9262C167.822 131.082 172.389 118.909 172.504 133.691Z" fill="#FFB800"/>
</g>
<path d="M55.8947 160.311C56.1458 167.735 56.7227 175.681 60.569 182.234C64.4398 188.829 71.3001 191.989 78.1897 194.546C78.2682 194.497 78.3631 194.476 78.4683 194.509C93.8485 199.405 109.913 203.855 126.196 203.759C132.22 203.724 137.477 202.089 141.5 198.322C142.906 187.316 144.053 176.293 144.265 165.186C144.489 153.403 144.409 141.043 142.314 129.412C140.824 121.132 136.534 115.275 130.77 111.012C130.661 111.054 130.539 111.072 130.419 111.052C129.886 110.972 129.375 110.793 128.911 110.531C128.094 112.591 127.258 114.651 126.658 116.785C126.356 117.858 125.174 120.678 126.376 121.458C126.503 121.54 128.258 121.216 128.475 121.223C129.095 121.243 130.034 121.703 130.555 121.603C131.948 121.333 131.333 120.227 131.13 119.162C130.642 116.607 129.984 114.107 129.329 111.591C129.208 111.128 129.931 110.778 130.135 111.252C130.92 113.076 131.558 114.966 132.047 116.894C132.401 118.284 133.33 120.905 132.982 122.322C132.411 124.645 129.521 122.544 128.088 122.576C125.845 122.625 124.263 123.45 124.617 120.402C125.039 116.77 126.654 113.375 128.403 110.198C128.237 110.065 128.078 109.925 127.936 109.764C127.758 109.562 127.761 109.302 127.905 109.087C117.724 102.898 104.119 100.668 92.8605 98.8234C82.9105 97.1931 63.2199 91.973 59.106 104.747C59.0617 105.045 59.0111 105.339 58.9675 105.635C56.3328 123.707 55.2762 142.054 55.8947 160.311ZM143.721 204.948C148.814 204.645 153.526 203.246 158.358 201.718C163.346 200.139 168.582 199.015 172.333 195.104C178.655 188.514 181.374 178.921 181.844 169.998C182.061 165.865 181.796 161.739 181.267 157.638C180.85 154.408 179.867 151.008 179.817 147.684C178.666 150.97 176.175 153.743 173.609 155.999C168 160.93 160.823 164.107 153.364 164.703C153.35 165.06 153.352 165.416 153.336 165.77C152.714 179.911 150.207 200.864 133.595 204.879C132.881 205.051 132.156 205.189 131.426 205.31C135.532 205.345 139.643 205.191 143.721 204.948ZM181.021 129.65C179.278 123.14 177.875 116.729 177.513 109.977C176.797 96.5915 179.145 83.2839 181.726 70.2054C183.096 63.2593 184.548 56.3256 185.658 49.3303C186.631 43.2013 187.761 36.6932 187.244 30.4648C186.642 23.1983 181.88 17.0679 173.944 19.2841C173.864 19.3069 173.791 19.3384 173.711 19.3611C177.52 21.9117 177.817 27.9878 177.613 32.1593C177.277 39.0844 175.35 46.2334 173.582 52.9537C174.413 55.1734 175.082 57.4458 175.56 59.7549C175.644 59.7721 175.719 59.8158 175.736 59.9265C176.994 68.3886 177.013 77.5946 175.811 86.2195C175.516 98.5451 174.889 110.879 177.214 123.057C178.062 127.501 179.473 131.966 179.127 136.526C180.044 139.068 180.663 141.757 180.482 144.426C180.599 144.473 180.702 144.565 180.715 144.707C180.86 146.273 181.117 147.815 181.415 149.351C184.189 143.037 182.762 136.155 181.021 129.65ZM182.587 16.0141C182.629 16.2347 182.423 16.4692 182.164 16.3292C179.94 15.1283 177.537 14.7082 175.088 14.5296C171.333 15.1931 168.016 17.5563 165.364 20.6985C163.526 22.8762 162.068 25.397 161.092 28.0753C160.423 29.9099 160.431 32.4079 159.474 34.0446C159.467 34.0569 159.454 34.0604 159.446 34.0709C160.151 34.5593 160.84 35.0599 161.499 35.5869C161.498 35.5763 161.489 35.5728 161.487 35.5606C160.969 26.7904 167.465 17.6964 176.624 17.1782C186.348 16.6268 189.235 26.5261 188.987 34.4455C188.906 37.045 188.703 39.6323 188.445 42.2109C190.643 31.7882 191.122 20.6863 182.587 16.0141ZM170.788 14.3563C167.024 14.2373 163.143 13.8504 159.384 14.1253C151.831 14.6749 145.881 19.8058 143.844 27.0512C146.343 27.8355 148.814 28.6932 151.222 29.6718C153.794 30.7168 156.147 31.9247 158.303 33.3024C158.354 33.2166 158.416 33.1378 158.494 33.0836C158.537 33.0538 158.581 33.0223 158.625 32.9908C158.8 32.8683 158.966 32.8753 159.098 32.9523C158.999 32.6459 158.9 32.3396 158.801 32.0332C158.893 31.4871 159.011 30.9462 159.152 30.4105C159.33 29.6928 159.54 28.9873 159.781 28.2871C160.22 27.018 160.751 25.7786 161.379 24.5935C162.864 21.7909 164.886 19.2421 167.311 17.1992C168.656 16.0649 170.182 15.0811 171.798 14.3861C171.461 14.3756 171.124 14.3668 170.788 14.3563ZM122.729 9.17125C123.118 11.5205 123.192 13.917 123.056 16.2924C122.939 18.3563 122.912 21.0066 122.036 22.9672C123.105 23.0338 124.172 23.1265 125.24 23.2316C125.24 23.2298 125.239 23.2281 125.24 23.2263C125.78 18.6714 126.938 12.0579 122.729 9.17125ZM107.049 7.38747C107.822 12.6373 107.231 18.2478 107.189 23.5396C109.304 23.1668 111.464 22.9252 113.677 22.8394C116.094 22.7467 118.522 22.7957 120.95 22.9147C120.901 20.562 121.655 18.0937 121.837 15.7358C122.016 13.4233 122.017 11.1073 122.096 8.79314C121.903 8.68985 121.72 8.57957 121.508 8.4903C119.041 7.45398 111.682 6.15334 107.049 7.38747ZM103.333 10.1411C103.613 14.7327 103.4 20.2714 102.118 24.7143C103.347 24.3624 104.593 24.0596 105.855 23.8005C105.852 23.7707 105.84 23.748 105.841 23.7147C106.12 18.3983 105.72 12.7984 106.56 7.53276C104.999 8.0334 103.811 8.86142 103.333 10.1411ZM145.663 96.5251C145.365 96.6646 145.056 96.7418 144.751 96.7576C144.441 98.0547 144.107 99.3464 143.84 100.65C143.621 101.716 143.43 102.788 143.256 103.861C143.092 104.871 142.947 105.882 142.823 106.896C142.363 107.877 142.535 108.206 143.338 107.886C143.94 108.068 146.09 107.517 146.624 107.194C147.978 106.377 147.507 105.092 147.161 103.734C146.579 101.45 146.129 99.142 145.618 96.8416C145.59 96.7171 145.615 96.6119 145.663 96.5251ZM136.305 45.8292C136.32 45.8396 136.336 45.8361 136.349 45.8518C136.368 45.873 136.384 45.8991 136.403 45.9222C137.065 46.5979 137.642 47.3508 138.135 48.1767C142.266 53.9972 144.802 61.0288 145.672 68.07C146.766 76.9306 145.206 86.2612 143.89 95.0788C144.116 95.0597 144.328 95.0282 144.523 94.9878C144.655 94.7061 144.781 94.4203 144.923 94.1454C145.031 93.9341 145.32 94.0894 145.283 94.2965C145.253 94.4607 145.215 94.6233 145.183 94.7882C145.958 94.4593 146.386 93.8781 146.461 93.041C146.563 92.4947 146.641 91.945 146.698 91.3938C146.872 90.1192 147.016 88.8418 147.127 87.5618C147.317 85.3824 147.425 83.1977 147.451 81.0117C147.507 76.257 147.162 71.4917 146.425 66.7933C145.116 58.4646 143.234 48.812 135.684 43.8968C132.447 41.789 128.463 40.8034 124.782 39.7531C120.89 38.6415 116.946 37.7505 112.959 37.0591C108.082 36.2118 103.175 35.5098 98.2626 34.9059C94.385 34.428 90.3579 33.7505 86.4134 33.9256C85.0665 34.6818 83.787 35.5378 82.578 36.4639C83.815 36.1103 85.0808 35.8704 86.272 35.7234C93.1882 34.8674 100.347 35.6516 107.19 36.7597C114.317 37.9151 121.742 39.2315 128.629 41.4371C131.513 42.3597 134.249 43.7702 136.305 45.8292ZM172.743 19.6832C166.238 22.1392 162.975 28.8823 162.406 35.5606C162.383 35.8337 162.186 35.9702 161.984 35.9895C166.55 39.7741 170.031 44.5827 172.629 50.5905C173.403 46.1972 174.852 41.8853 175.633 37.5037C176.642 31.8372 177.426 23.9353 172.743 19.6832ZM174.288 116.145C172.909 103.237 173.952 90.2771 174.368 77.3287C174.347 76.7822 174.343 76.257 174.389 75.7895C174.399 75.6848 174.409 75.5815 174.419 75.4782C174.523 71.6216 174.557 67.765 174.443 63.9124C173.791 59.0806 172.384 54.3351 170.319 49.9321C168.086 45.1674 165.173 40.5636 161.057 37.2148C156.702 33.67 151.348 31.4346 146.092 29.6158C135.367 25.9046 123.82 24.0158 112.465 24.5497C106.269 24.8403 100.444 26.5506 94.8929 29.0048C99.5318 28.2206 104.256 28.4622 109.142 28.9926C116.578 29.7978 123.846 31.5063 130.941 33.8608C138.275 36.2941 146.296 38.8551 152.637 43.4011C158.295 47.4574 161.911 53.5015 163.621 60.194C167.796 76.5422 161.042 93.969 157.697 109.871C155.718 119.271 154.17 128.759 153.746 138.37C153.471 144.617 153.56 150.874 153.52 157.128C161.737 154.83 170.36 151.754 174.864 143.91C179.858 135.215 175.27 125.332 174.288 116.145ZM178.871 138.508C178.225 141.78 176.632 144.806 174.562 147.405C169.443 153.826 161.359 157.204 153.513 158.917C153.497 160.302 153.445 161.685 153.406 163.069C159.983 162.297 166.186 160.178 171.462 156.039C174.243 153.858 176.817 151.266 178.301 148.013C179.759 144.813 179.474 141.706 178.871 138.508ZM69.4582 58.9754C65.4891 71.8965 62.3787 85.0782 60.1178 98.4048C60.911 97.0865 61.9235 95.8981 63.1673 94.9332C67.5118 91.5634 73.0539 92.0646 78.2006 92.5631C90.9947 93.8028 103.99 94.9769 116.488 98.1244C126.117 100.551 135.422 104.813 141.055 113.358C147.445 123.05 148.852 135.91 149.469 147.233C149.881 154.788 149.69 162.362 149.288 169.914C149 175.311 148.901 180.883 148.383 186.339C149.811 181.819 150.53 177.026 150.98 172.402C152.524 156.514 150.918 140.554 153.123 124.692C154.274 116.413 156.045 108.237 157.924 100.097C159.788 92.0222 162.046 83.926 162.759 75.6444C163.397 68.234 162.694 60.5125 159.204 53.8311C155.295 46.349 148.337 42.4822 140.765 39.487C127.451 34.2179 112.659 29.5002 98.1397 30.3055C94.9981 30.4805 91.8577 31.3488 88.9064 32.674C92.9432 32.6477 97.1527 33.5335 100.971 34.0359C106.71 34.7904 112.472 35.5974 118.131 36.828C126.981 38.7501 137.44 40.8595 142.485 49.2183C145.319 53.9153 146.444 59.8403 147.367 65.1795C148.345 70.8353 148.781 76.586 148.624 82.3225C148.54 85.3845 148.29 88.4371 147.876 91.4724C147.697 92.7888 147.63 94.5113 146.773 95.6266C146.562 95.9014 146.31 96.1134 146.046 96.2939C146.227 96.2851 146.41 96.3739 146.481 96.6037C147.121 98.6797 147.823 100.733 148.41 102.825C148.728 103.959 149.711 106.007 149.315 107.224C149.078 107.952 148.533 108.152 147.939 108.43C146.835 108.948 144.08 109.685 142.802 109.577C140.554 109.387 141.262 107.333 141.546 105.629C142.046 102.615 142.722 99.4798 143.843 96.5804C143.769 96.5456 143.695 96.5127 143.624 96.467C143.273 97.0202 142.127 96.7835 142.199 96.0136C142.994 87.5214 144.918 78.956 144.295 70.3963C143.73 62.6254 141.204 55.5482 137.548 48.8277C134.73 44.7488 129.853 42.9149 125.016 41.7365C119.457 40.3816 113.83 39.1684 108.19 38.2056C99.0928 36.6512 86.2044 34.2757 78.3187 40.4271C73.7038 45.7048 71.5157 52.2796 69.4582 58.9754ZM128.652 108.261C128.843 108.078 129.052 107.912 129.265 107.748C129.306 107.63 129.349 107.513 129.414 107.399C129.552 107.159 129.993 107.108 130.117 107.399C130.454 108.196 130.549 109.021 130.903 109.799C134.308 112.299 137.31 115.311 139.622 118.904C142.499 123.373 143.553 128.412 144.127 133.631C144.886 140.531 145.317 147.474 145.484 154.413C145.824 168.586 145.139 182.924 142.835 196.932C143.688 195.957 144.479 194.877 145.192 193.667C145.507 193.13 145.782 192.573 146.063 192.02C145.899 186.245 146.739 180.352 147.102 174.59C147.452 169.029 147.731 163.462 147.783 157.888C147.888 146.467 147.193 134.674 143.751 123.714C140.426 113.134 133.663 105.822 123.295 101.896C113.269 98.0985 102.215 96.8013 91.6475 95.4623C81.666 94.1981 64.2923 89.5244 59.6747 101.087C59.5921 101.603 59.5143 102.121 59.4337 102.638C62.8136 96.5633 70.9778 94.5871 78.1931 95.3223C84.4405 95.9609 90.6391 97.4489 96.8426 98.4342C103.207 99.4448 109.599 100.483 115.769 102.393C120.24 103.777 124.661 105.708 128.652 108.261ZM53.8637 145.885C53.9953 136.705 54.5354 127.529 55.4789 118.398C57.2853 100.915 60.5342 83.5848 65.2311 66.6517C67.415 58.7778 69.3633 50.0237 73.8485 43.079C77.0899 38.0603 81.7793 34.0254 87.1574 31.4468C91.539 28.765 96.1245 26.5681 100.961 25.0609C100.962 22.3143 101.583 19.5309 101.916 16.8088C102.168 14.7555 102.363 12.6933 102.688 10.6505C102.034 3.91438 115.263 5.7227 119.002 6.43517C121.854 6.97958 124.743 8.02641 126.098 10.7993C127.84 14.3651 127.079 19.4662 126.732 23.2263C126.727 23.2858 126.701 23.3296 126.685 23.3821C132.06 24.0036 137.395 25.0976 142.574 26.6434C144.282 19.8723 149.938 14.3826 156.843 13.11C161.362 12.2767 166.226 12.9227 170.788 13.089C172.425 13.1502 174.053 13.1905 175.64 13.3708C177.456 13.2097 179.298 13.5178 181.059 14.4789C181.172 14.5401 181.187 14.6609 181.144 14.7572C187.882 16.6373 190.394 24.3274 190.44 30.7501C190.488 37.6875 189.265 45.2582 187.12 52.1817C183.841 72.2677 177.649 91.9907 179.4 112.614C180.073 120.539 182.787 127.83 184.17 135.593C185.148 141.084 184.953 146.62 182.215 151.581C182.139 151.719 182.04 151.81 181.932 151.878C182.501 154.525 183.102 157.167 183.413 159.873C183.972 164.713 183.986 169.622 183.341 174.453C182.231 182.77 178.962 191.873 172.526 197.582C169.015 200.696 164.459 201.788 160.093 203.168C155.145 204.732 150.259 206.334 145.058 206.764C135.856 207.526 125.871 207.974 116.88 205.287C113.249 204.846 109.663 204.202 106.28 203.6C97.8715 202.105 89.5686 199.937 81.6639 196.708C81.5751 196.747 81.4734 196.764 81.352 196.732C80.5409 196.52 79.7265 196.305 78.9113 196.081C78.9236 196.181 78.8724 196.291 78.7413 196.291C78.5707 196.291 78.5277 196.102 78.602 195.994C72.5822 194.324 66.5698 192.132 62.1603 187.511C57.6375 182.77 55.638 176.351 54.7395 169.991C53.6185 162.058 53.7489 153.878 53.8637 145.885Z" fill="#4ABAFF"/>
<g filter="url(#filter2_f_1_2025)">
<path d="M146.222 201.352C177.812 199.184 180.871 170.957 178.451 157.114C175.4 161.844 165.37 166.561 160.737 168.328C160.942 175.023 158.326 191 146.222 201.352Z" fill="#FAA61A"/>
</g>
<path d="M144.434 105.916C144.593 105.869 144.754 105.82 144.897 105.743C145.667 105.328 145.597 104.719 145.455 103.933C145.395 103.609 145.377 103.292 145.376 102.977C145.059 103.956 144.738 104.932 144.434 105.916ZM146.245 101.297C146.078 102.319 146.237 103.213 146.43 104.218C146.522 104.694 146.555 105.132 146.335 105.58C145.901 106.471 144.799 106.801 143.898 106.956C143.596 107.008 143.239 106.761 143.359 106.417C143.861 104.975 144.406 103.515 145.123 102.165C145.19 102.037 145.329 102.021 145.438 102.071C145.481 101.757 145.537 101.442 145.615 101.124C145.717 100.706 146.311 100.889 146.245 101.297Z" fill="#FAA61A"/>
<path d="M67.4224 173.876C69.7811 174.721 72.1977 175.432 74.5905 176.174C80.2486 177.93 85.9715 179.518 91.7627 180.769C97.6823 182.05 103.682 182.854 109.739 183.038C112.37 183.118 120.739 183.719 125.635 182.285C126.606 178.749 127.051 169.602 127.105 168.378C127.122 168.012 127.679 168.008 127.678 168.378C127.674 171.731 127.656 175.067 127.15 178.39C127.008 179.328 126.916 180.727 126.586 181.956C127.262 181.69 127.843 181.371 128.289 180.99C129.517 171.831 130.074 162.679 129.523 153.436C129.478 152.682 129.441 151.903 129.402 151.115C128.146 153.975 124.789 155.229 121.336 155.117C112.782 154.84 104.128 153.392 95.6431 152.314C87.7746 151.314 79.9209 150.156 72.1423 148.59C69.5776 148.074 65.5477 147.971 63.3993 146.313C62.0564 145.279 61.7731 143.712 61.8141 142.135C60.898 151.37 60.121 160.701 62.0537 169.647C63.6948 171.306 64.8643 172.958 67.4224 173.876ZM62.5562 142.466C62.7016 143.449 63.1003 144.09 64.3107 145.055C66.068 146.456 67.589 146.656 69.7503 147.115C72.3951 147.675 75.0499 148.188 77.7123 148.661C84.1071 149.797 90.5415 150.697 96.986 151.493C102.812 152.214 108.649 152.899 114.494 153.447C117.168 153.697 120.386 154.264 123.072 153.788C126.373 153.201 126.946 151.554 127.686 149.527C125.488 151.465 121.953 152.17 119.136 152.169C110.739 152.16 102.173 150.973 93.8564 149.902C86.0535 148.897 78.1295 147.871 70.4903 145.952C68.2457 145.389 64.3502 144.47 62.5562 142.466ZM126.518 137.628C127.57 139.888 127.72 142.676 127.572 145.189C127.548 145.592 126.961 145.595 126.944 145.189C126.781 141.471 126.447 137.421 123.469 134.979C121.564 133.861 119.347 133.135 117.286 132.449C109.013 129.699 100.536 127.621 91.926 126.259C87.0863 125.494 82.1778 124.852 77.2782 124.638C73.5125 124.473 64.8876 123.887 62.9534 128.304C62.8162 131.598 62.5221 134.938 62.1937 138.301C62.268 138.336 62.3267 138.413 62.303 138.506C62.1322 139.168 62.15 139.771 62.3056 140.328C62.3861 140.36 62.4545 140.421 62.4566 140.543C62.4578 140.624 62.4592 140.687 62.4606 140.764C64.329 145.02 75.1702 146.071 78.477 146.653C84.4812 147.706 90.5114 148.617 96.562 149.354C101.976 150.016 107.406 150.548 112.846 150.952C118.991 151.407 126.444 152.522 128.97 145.296C128.73 143.339 128.357 141.426 127.696 139.681C127.402 138.902 126.984 138.241 126.518 137.628ZM60.6406 139.488C60.872 137.44 61.1165 135.388 61.4106 133.347C61.5158 132.619 61.6257 131.887 61.7486 131.159C61.7655 131.061 62.1254 129.816 62.4026 129.246C62.3828 129.226 62.3589 129.214 62.3466 129.184C62.0291 128.379 62.0326 128.54 62.4169 127.745C62.4428 127.691 62.4872 127.665 62.5315 127.64C63.4171 125.212 66.5902 124.505 68.9836 124.067C74.0382 123.143 79.2286 123.624 84.2976 124.177C95.3795 125.387 106.357 127.71 116.998 131.038C120.652 132.179 124.799 133.419 127.428 136.395C127.952 136.988 128.355 137.643 128.703 138.327C128.815 138.311 128.934 138.353 128.977 138.502C129.107 138.943 129.224 139.391 129.346 139.836C129.604 140.592 129.8 141.373 129.951 142.172C132.92 154.388 133.228 168.043 130.771 180.253C131.165 183.708 125.393 184.496 122.629 184.634C114.725 185.032 106.928 184.93 99.1023 183.648C91.2931 182.372 83.6838 180.365 76.1347 178.012C72.8189 176.979 69.3216 176.086 66.1328 174.698C64.224 173.867 63.3241 172.829 62.4435 171.551C62.3697 171.932 61.7937 172.139 61.5889 171.717C58.5768 165.515 59.2739 157.795 59.6411 151.108C59.8541 147.225 60.2037 143.351 60.6406 139.488Z" fill="#FAA61A"/>
<path d="M127.973 117.982C127.868 118.241 127.758 118.5 127.706 118.777C127.601 119.155 127.676 119.507 127.935 119.832C128.112 119.93 128.297 119.95 128.487 119.894C128.777 119.636 128.139 118.423 127.973 117.982ZM128.41 120.48C127.76 120.548 127.256 120.123 127.139 119.493C126.976 118.617 127.547 117.874 127.771 117.068C127.708 116.667 127.665 116.265 127.656 115.858C127.648 115.554 128.086 115.57 128.118 115.858C128.121 115.892 128.13 115.926 128.134 115.958C128.178 115.981 128.216 116.021 128.233 116.09C128.308 116.382 128.315 116.65 128.283 116.912C128.358 117.283 128.451 117.649 128.567 118.01C128.734 118.531 129.143 119.052 129.241 119.572C129.337 120.077 128.86 120.433 128.41 120.48Z" fill="#FAA61A"/>
<defs>
<filter id="filter0_f_1_2025" x="0.829456" y="67.4078" width="181.731" height="174.354" filterUnits="userSpaceOnUse" color-interpolation-filters="sRGB">
<feFlood flood-opacity="0" result="BackgroundImageFix"/>
<feBlend mode="normal" in="SourceGraphic" in2="BackgroundImageFix" result="shape"/>
<feGaussianBlur stdDeviation="30.15" result="effect1_foregroundBlur_1_2025"/>
</filter>
<filter id="filter1_f_1_2025" x="80.8463" y="1.67031" width="116.059" height="174.872" filterUnits="userSpaceOnUse" color-interpolation-filters="sRGB">
<feFlood flood-opacity="0" result="BackgroundImageFix"/>
<feBlend mode="normal" in="SourceGraphic" in2="BackgroundImageFix" result="shape"/>
<feGaussianBlur stdDeviation="12.2" result="effect1_foregroundBlur_1_2025"/>
</filter>
<filter id="filter2_f_1_2025" x="121.022" y="131.914" width="83.2763" height="94.6378" filterUnits="userSpaceOnUse" color-interpolation-filters="sRGB">
<feFlood flood-opacity="0" result="BackgroundImageFix"/>
<feBlend mode="normal" in="SourceGraphic" in2="BackgroundImageFix" result="shape"/>
<feGaussianBlur stdDeviation="12.6" result="effect1_foregroundBlur_1_2025"/>
</filter>
</defs>
</svg>
