<svg width="233" height="274" viewBox="0 0 233 274" fill="none" xmlns="http://www.w3.org/2000/svg">
<g id="Frame 10549">
<rect width="214" height="211" transform="translate(11.5 29.9551)" fill="#131313"/>
<g id="Group 513">
<g id="Group 512" filter="url(#filter0_d_1_2042)">
<g id="Group 508">
<path id="Vector" d="M120.456 120.071C122.107 120.069 123.758 120.126 125.408 120.206C130.779 120.457 136.156 120.504 141.528 120.69C137.643 122.99 133.281 124.462 128.804 125.033C126.468 125.325 123.803 125.234 121.932 123.623C120.861 122.76 120.692 121.327 120.456 120.071Z" fill="#F5F5F5"/>
<path id="Vector_2" d="M101.996 129.036C104.092 127.727 106.145 126.353 108.298 125.135C108.81 126.514 109.32 128.107 108.558 129.502C107.271 132.03 104.516 133.335 101.959 134.22C98.3083 135.401 94.4988 136.36 90.6293 136.135C94.3144 133.605 98.2389 131.453 101.996 129.036Z" fill="#F5F5F5"/>
</g>
<g id="Group 509">
<path id="Vector_3" d="M133.366 143.764C135.367 142.05 137.732 140.83 140.183 139.897C141.507 139.419 142.893 139.051 144.308 139.023C145.057 138.945 145.619 139.528 146.22 139.873C143.922 140.836 141.392 140.851 139 141.453C137.019 141.945 135.223 142.945 133.366 143.764Z" fill="#F5F5F5"/>
<g id="#212121fe">
<path id="Vector_4" d="M92.8824 144.297C96.7502 143.232 100.906 143.551 104.777 144.511C107.789 145.288 110.641 146.668 113.148 148.524C113.859 149.077 114.594 149.681 114.971 150.526C114.914 150.982 114.553 151.339 114.088 151.343C112.743 150.739 111.654 149.642 110.227 149.199C108.244 148.566 106.146 148.44 104.083 148.369C101.055 148.266 98.006 148.583 95.1036 149.46C93.5907 149.884 92.1347 150.568 90.5559 150.734C90.2152 150.339 89.9608 149.882 89.6886 149.443C91.0629 148.706 92.5252 148.118 94.0665 147.835C98.0929 146.99 102.295 146.762 106.366 147.498C107.12 147.625 107.874 147.739 108.635 147.831C105.147 145.484 100.854 144.795 96.745 144.758C95.4446 144.776 94.1535 144.565 92.8824 144.297Z" fill="#F5F5F5"/>
<path id="Vector_5" d="M142.669 142.166C144.313 141.617 146.071 140.631 147.844 141.211C148.535 141.4 148.651 142.195 148.888 142.764C146.827 142.43 144.758 142.137 142.669 142.166Z" fill="#F5F5F5"/>
<g id="#222222fe">
<path id="Vector_6" d="M138.848 132.746C140.367 131.845 141.987 131.096 143.719 130.706C142.745 131.564 141.737 132.391 140.602 133.019C137.06 135.08 133.688 137.807 131.844 141.571C133.871 140.03 135.785 138.317 138.06 137.139C141.461 135.329 145.134 133.674 149.059 133.601C149.044 134.117 149.092 134.643 148.951 135.147C147.517 135.809 145.9 135.902 144.381 136.296C140.621 137.14 137.146 138.934 133.998 141.122C132.632 142.089 131.352 143.229 130.468 144.673C129.948 145.475 129.578 146.371 129.004 147.139C128.714 147.602 127.974 147.512 127.729 147.044C127.601 146.28 127.858 145.528 128.111 144.822C130.175 139.702 134.095 135.448 138.848 132.746Z" fill="#F5F5F5"/>
</g>
</g>
<g id="#212121fd">
<path id="Vector_7" d="M95.3198 153.504C95.8501 151.572 97.9598 151.125 99.6304 150.683C102.508 150.099 105.495 149.926 108.4 150.457C106.795 150.65 105.174 150.701 103.581 150.988C100.728 151.494 98.2128 153.147 95.3198 153.504Z" fill="#F5F5F5"/>
</g>
</g>
<g id="Group 511">
<path id="Vector_8" d="M99.9924 165.696C101.545 163.895 104.102 163.49 106.352 163.786C110.658 164.296 114.884 165.37 119.211 165.695C122.576 165.984 126.115 165.841 129.178 164.27C134.137 161.785 137.677 157.33 142.254 154.298C144.496 152.811 147.522 151.894 150.063 153.171C151.686 153.915 152.607 155.526 153.337 157.072C152.605 156.673 151.887 156.253 151.164 155.848C151.535 158.65 152.406 161.385 152.424 164.23C152.603 169.128 151.181 174.116 148.199 178.032C141.269 187.32 128.388 191.519 117.275 188.389C113.425 187.298 109.785 185.263 107.084 182.284C104.857 179.86 103.251 176.92 102.15 173.834C101.391 171.78 101.166 169.416 99.5121 167.821C99.0493 168.785 98.6336 169.769 98.211 170.752C98.5058 168.992 98.7095 167.06 99.9924 165.696ZM103.483 164.976C104.89 167.858 105.973 171 108.132 173.432C109.806 173.972 111.501 174.461 113.248 174.708C119.275 175.604 125.571 175.347 131.343 173.288C137.25 171.046 142.217 166.884 146.293 162.138C146.729 159.352 145.769 156.601 145.479 153.846C143.471 154.751 141.661 156.047 140.158 157.661C135.715 162.29 130.05 166.165 123.541 166.94C117.671 167.936 111.915 166.007 106.203 164.959C105.298 164.841 104.387 164.924 103.483 164.976ZM122.258 179C121.404 179.86 120.541 180.716 119.697 181.59C120.54 182.407 121.372 183.346 122.551 183.662C125.386 184.521 128.415 183.977 131.217 183.259C135.402 182.102 139.665 179.771 141.563 175.666C140.613 175.341 139.667 175.009 138.727 174.649C136.883 174.315 134.936 174.067 133.124 174.705C131.855 175.067 130.899 176.038 129.72 176.579C128.559 176.668 127.38 176.195 126.24 176.581C124.737 177.052 123.495 178.064 122.258 179ZM116.589 184.844C116.863 185.736 116.772 187.077 117.879 187.376C120.775 188.497 123.948 188.706 127.014 188.374C129.908 188.046 132.839 187.641 135.549 186.509C138.793 185.17 141.802 183.262 144.426 180.933C145.404 180.088 146.154 179.018 146.732 177.868C146.071 176.751 145.647 175.361 144.504 174.627C143.584 174.581 142.818 175.208 142.284 175.895C141.195 177.297 140.306 178.882 138.914 180.021C135.836 182.591 131.846 183.721 127.974 184.433C125.35 184.831 122.21 184.96 120.194 182.918C119.505 182.424 118.895 181.254 117.911 181.63C116.615 182.071 116.62 183.712 116.589 184.844Z" fill="black"/>
<path id="Vector_9" d="M131.51 192.018C134.024 191.281 136.362 190.007 138.947 189.501C138.298 190.335 137.66 191.285 136.616 191.655C135.005 192.37 133.211 192.249 131.51 192.018Z" fill="#F5F5F5"/>
<g id="Group 510">
<g id="#d4d4d4ff">
<path id="Vector_10" d="M103.483 164.888C104.387 164.839 105.298 164.759 106.203 164.883C111.918 165.965 117.678 167.936 123.546 166.957C130.055 166.205 135.713 162.321 140.148 157.672C141.648 156.051 143.455 154.752 145.462 153.848C145.758 156.628 146.722 159.407 146.292 162.215C145.891 160.112 145.54 158.002 145.121 155.904C143.272 156.896 141.537 158.118 140.13 159.688C137.476 162.561 134.408 165.092 130.903 166.84C127.814 168.376 124.335 168.98 120.903 168.97C116.961 168.962 113.168 167.729 109.359 166.847C107.979 166.535 106.559 166.494 105.154 166.432C106.046 168.81 107.217 171.072 108.148 173.437C105.985 170.974 104.895 167.8 103.483 164.888Z" fill="#D4D4D4"/>
</g>
<g id="#ffffffff">
<path id="Vector_11" d="M105.15 166.399C106.556 166.461 107.975 166.502 109.355 166.813C113.163 167.692 116.956 168.923 120.897 168.93C124.328 168.94 127.807 168.337 130.895 166.803C134.399 165.058 137.465 162.532 140.119 159.664C141.526 158.097 143.261 156.877 145.108 155.887C145.527 157.981 145.879 160.086 146.28 162.185C142.214 166.945 137.255 171.113 131.354 173.345C125.587 175.392 119.291 175.625 113.264 174.696C111.517 174.44 109.82 173.941 108.145 173.39C107.214 171.03 106.043 168.773 105.15 166.399Z" fill="white"/>
<path id="Vector_12" d="M116.594 184.797C116.624 183.657 116.615 182.004 117.91 181.565C118.894 181.191 119.505 182.372 120.196 182.873C122.215 184.939 125.355 184.822 127.978 184.433C131.849 183.732 135.836 182.611 138.91 180.035C140.299 178.894 141.186 177.302 142.272 175.893C142.805 175.203 143.569 174.575 144.49 174.626C145.634 175.37 146.061 176.772 146.723 177.901C143.38 180.925 139.827 183.849 135.58 185.487C132.084 186.834 128.334 187.445 124.602 187.619C122.511 187.642 120.363 187.632 118.353 186.972C117.363 186.696 116.948 185.664 116.594 184.797Z" fill="white"/>
</g>
<path id="Union" fill-rule="evenodd" clip-rule="evenodd" d="M138.708 174.658L138.717 174.644C139.658 175.01 140.604 175.349 141.555 175.681C139.665 179.807 135.407 182.136 131.224 183.283C128.424 183.995 125.396 184.53 122.559 183.652C121.523 183.369 120.755 182.602 120.011 181.859C119.907 181.756 119.804 181.653 119.701 181.552C120.331 180.898 120.97 180.254 121.609 179.61C121.825 179.392 122.041 179.174 122.257 178.955C122.263 178.958 122.268 178.961 122.273 178.963C122.378 178.884 122.482 178.804 122.587 178.723C123.716 177.86 124.868 176.979 126.239 176.552C126.927 176.321 127.63 176.404 128.335 176.489C128.797 176.544 129.259 176.599 129.719 176.565C130.207 176.342 130.656 176.043 131.106 175.745C131.741 175.324 132.376 174.902 133.118 174.692C134.925 174.06 136.868 174.315 138.708 174.658Z" fill="url(#paint0_linear_1_2042)"/>
<path id="Vector_13" d="M117.88 187.376C116.772 187.077 116.864 185.736 116.589 184.844C116.942 185.702 117.354 186.725 118.344 186.994C120.353 187.641 122.5 187.642 124.591 187.61C128.324 187.421 132.076 186.799 135.574 185.446C139.824 183.802 143.383 180.884 146.732 177.868C146.154 179.018 145.404 180.088 144.426 180.933C141.802 183.262 138.794 185.17 135.549 186.509C132.839 187.641 129.908 188.046 127.014 188.374C123.948 188.706 120.775 188.497 117.88 187.376Z" fill="#D6D6D6"/>
</g>
</g>
</g>
<g id="Group 507">
<g id="#484443ff">
<g id="Vector_14" filter="url(#filter1_d_1_2042)">
<path d="M117.865 43.3807C122.356 43.1567 126.853 43.2469 131.348 43.2873C134.837 43.306 138.317 43.617 141.773 44.0835C143.312 44.3479 145.331 44.4288 146.012 46.1238C147.278 48.6461 148.046 51.3954 149.408 53.868C150.717 56.2504 153.585 56.9377 155.949 57.8148C156.474 56.6329 157.09 55.3049 158.343 54.7482C159.136 54.3407 160.147 54.8073 160.461 55.6159C160.978 56.8568 160.468 58.1817 160.066 59.376C160.11 59.5004 160.2 59.7524 160.244 59.8799C159.525 59.9203 159.093 60.4957 158.648 60.9777C163.177 63.0304 167.064 66.3925 169.751 70.5725C173.079 75.698 175.247 81.7969 174.868 87.9705C174.812 90.1321 174.451 92.3838 173.235 94.2157C172.159 95.8734 170.159 96.7598 168.224 96.7846C161.612 96.9775 155.224 94.9901 148.979 93.0743C148.655 93.4506 148.329 93.8238 148.008 94.197C158.592 98.3957 168.003 105.418 175.163 114.264C182.123 122.86 186.838 133.248 188.851 144.118C191.152 157.217 189.669 171.023 184.189 183.181C180.631 191.286 175.399 198.638 168.958 204.709C168.168 205.257 168.753 206.27 168.992 206.967C170.006 209.34 173.157 210.671 175.462 209.349C176.895 208.479 177.831 206.861 177.993 205.21C177.993 203.341 176.647 201.876 176.211 200.122C178.267 199.764 179.977 201.537 180.817 203.226C182.733 207.399 179.604 212.799 175.076 213.321C171.129 213.881 167.136 210.805 166.638 206.858C158.21 214.03 148.027 219.143 137.195 221.457C124.244 224.2 110.438 223.146 98.1625 218.12C97.3632 218.664 96.5297 219.233 96.0383 220.092C94.9684 221.737 95.0617 224.023 96.2124 225.6C97.6493 227.317 100.343 227.715 102.29 226.682C103.835 225.824 104.47 224.06 105.726 222.897C106.641 223.93 106.513 225.438 106.103 226.663C105.216 229.114 102.725 230.85 100.131 230.934C97.3943 231.26 94.5236 229.823 93.1707 227.419C91.1616 224.026 92.3808 219.174 95.8392 217.23C91.513 215.047 87.1837 212.802 83.3272 209.838C73.776 202.675 66.1002 192.987 61.5314 181.943C56.4868 169.922 55.2303 156.378 57.8801 143.62C59.2766 136.871 61.746 130.318 65.416 124.471C66.3925 123 67.2416 121.37 68.6754 120.285C67.7081 123.115 66.1811 125.709 65.0956 128.492C60.1661 140.112 58.5488 153.121 60.6886 165.571C62.6822 176.898 67.7175 187.722 75.3155 196.377C82.1578 204.305 91.0247 210.447 100.837 214.099C113.452 218.901 127.634 219.33 140.578 215.557C150.344 212.674 159.423 207.406 166.669 200.237C174.942 192.228 180.96 181.903 183.731 170.719C186.991 157.874 186.101 143.981 181.063 131.711C177.132 121.998 170.743 113.293 162.639 106.656C153.062 98.744 141.088 93.774 128.729 92.558C121.075 91.9173 113.268 92.3403 105.838 94.3743C94.7227 97.3445 84.5059 103.381 76.2983 111.415C75.076 112.513 74.0372 113.834 72.6501 114.739C73.5552 113.222 74.7028 111.869 75.8442 110.525C74.9392 110.146 74.0559 109.713 73.2193 109.206C69.0517 112.824 64.6167 116.186 59.7586 118.832C58.3995 119.532 57.0248 120.254 55.5195 120.583C55.8026 120.132 56.1882 119.759 56.6236 119.457C60.2967 116.717 64.0351 114.049 67.4686 111.004C72.2271 106.827 76.6217 102.196 80.2513 96.9961C81.8716 94.6013 83.4578 92.1536 84.5401 89.4634C84.8325 88.6579 85.1839 87.6968 84.6832 86.9007C83.9896 85.7219 82.73 85.0532 81.5669 84.4219C76.2143 81.6259 69.8634 81.2464 64.0257 82.4718C59.457 83.4484 55.0872 85.7872 52.1357 89.4572C49.1065 93.1209 47.6198 97.8576 47.3492 102.56C47.1595 107.34 48.4409 112.09 50.562 116.35C51.2369 117.71 52.0269 119.016 52.5525 120.443C51.3209 120.126 50.506 119.056 49.657 118.189C42.4881 109.853 41.9718 96.7349 48.2076 87.7373C48.5933 87.193 49.0318 86.6643 49.178 85.9987C48.4969 86.4466 47.8749 86.9877 47.1222 87.3205C47.2435 86.5959 47.5141 85.9085 47.7847 85.2274C46.8392 84.2695 45.8626 83.1467 45.7631 81.741C45.6542 80.8888 46.3447 79.9433 47.2466 79.9931C48.584 79.9806 49.6756 80.8981 50.5216 81.8374C52.201 80.0988 53.9241 78.3851 55.392 76.46C55.364 74.0776 55.3734 71.6921 55.2925 69.3098C55.3578 67.8573 55.2614 66.1654 56.3935 65.0645C58.1445 63.3414 60.2656 62.0538 62.3401 60.76C70.9675 55.6097 80.2482 51.638 89.7123 48.3009C98.7441 45.0943 108.339 43.8907 117.865 43.3807ZM119.417 46.8453C110.923 47.5202 102.417 48.727 94.2717 51.2959C86.7701 53.7654 79.4737 56.8288 72.3111 60.1442C68.2275 62.0694 64.1626 64.0785 60.3776 66.548C59.7618 67.0176 58.9065 67.4624 58.8349 68.3239C58.5613 71.0266 58.723 73.7573 58.3778 76.4537C58.2471 77.6169 57.4945 78.5686 56.6858 79.3586C55.0686 80.9385 53.2118 82.251 51.5915 83.831C53.6006 82.2666 55.6968 80.7675 58.0698 79.8033C61.8175 78.27 65.8794 77.449 69.9381 77.6263C75.3124 77.4925 80.7427 78.9947 85.1777 82.0582C86.571 83.0503 87.8649 84.3441 88.3905 86.0112C88.9441 88.1385 88.2381 90.328 87.2148 92.1941C84.9911 96.315 82.0894 100.035 78.973 103.512C78.1364 104.454 77.194 105.313 76.4662 106.348C76.5471 107.232 76.9701 108.053 77.2282 108.899C77.5486 108.612 77.8689 108.329 78.183 108.037C86.8758 99.2821 98.2838 93.4133 110.314 90.8567C109.801 89.3172 109.132 87.759 109.284 86.0951C109.281 85.2305 109.944 84.5494 110.678 84.1948C113.458 82.7828 116.752 82.506 119.364 80.7519C120.353 79.1284 118.329 76.9887 116.599 77.3152C112.621 77.8409 108.693 78.7148 104.771 79.567C101.596 80.3663 98.318 80.9354 95.3074 82.2541C94.7507 83.2151 94.9342 84.425 95.1208 85.47C95.2234 85.8028 95.2483 86.3999 95.7584 86.3253C98.769 86.3781 101.646 84.8728 104.672 85.2803C105.913 85.6659 106.05 87.1806 106.1 88.2722C106.075 88.7761 106.146 89.7246 105.453 89.7775C104.846 89.1182 104.541 88.2567 104.162 87.4636C101.17 88.3251 98.3304 90.0357 95.1332 89.9361C93.2174 89.9641 91.8707 88.2256 91.342 86.5554C90.7728 84.6116 90.636 82.4376 91.4011 80.528C92.0915 78.8174 93.942 78.0834 95.5562 77.5174C99.6584 76.1427 103.926 75.3403 108.177 74.5814C111.07 74.1367 113.977 73.6049 116.913 73.6453C119.243 73.6577 121.218 75.3279 122.275 77.2966C123.187 79.2684 122.966 82.0644 120.947 83.2742C117.958 85.0284 114.335 85.0315 111.169 86.2973C110.88 87.7248 111.178 89.2115 111.474 90.6204C122.552 88.6859 134.097 89.4043 144.777 92.9716C144.808 92.4305 144.842 91.8924 144.877 91.3544C139.897 89.1057 135.017 86.5648 130.592 83.3396C129.357 82.3661 128.048 81.4237 127.133 80.1237C128.166 80.3383 129.055 80.9199 129.976 81.4051C140.093 87.0779 151 91.8333 162.639 93.0711C164.725 93.2204 166.871 93.5377 168.933 93.0214C170.482 92.5113 170.712 90.6328 170.871 89.2426C171.369 83.4546 169.3 77.7196 166.119 72.9611C163.4 68.9583 159.535 65.5527 154.832 64.1594C148.886 62.3275 142.261 63.4876 136.971 66.6413C133.609 68.5571 130.809 71.3096 128.474 74.3699C127.628 75.3932 126.94 76.5657 125.864 77.3774C125.939 75.1382 127.074 73.1228 128.185 71.2381C133.646 62.284 145.069 57.5162 155.28 59.883C155.401 59.7399 155.644 59.4476 155.765 59.3014C153.38 58.5176 150.792 57.9858 148.811 56.3437C146.292 53.7809 145.595 50.083 143.695 47.1284C142.491 46.6712 141.169 46.7365 139.91 46.5903C133.083 46.1704 126.234 46.3602 119.417 46.8453Z" fill="#FFB800"/>
</g>
<path id="Vector_15" opacity="0.7" d="M133.802 74.6962C136.336 70.9143 140.389 68.1152 144.871 67.2381C147.094 66.8742 149.766 66.7871 151.495 68.4915C151.001 69.0451 150.211 68.9611 149.545 69.0575C147.707 69.1508 145.9 69.6889 144.301 70.6033C141.014 72.4787 138.184 75.0227 135.347 77.5015C134.716 77.9743 133.948 78.7611 133.093 78.3319C132.433 77.1376 133.155 75.7381 133.802 74.6962Z" fill="#FFB800"/>
<path id="Vector_16" opacity="0.7" d="M54.2977 93.7955C55.1032 92.9154 56.1295 92.0539 57.4047 92.1316C57.0315 93.5187 56.0487 94.6259 55.5977 95.985C54.7082 98.1715 54.8731 100.572 54.8699 102.88C54.8731 105.085 55.1125 107.284 55.408 109.467C55.4982 110.397 55.6724 111.368 55.4173 112.288C54.7424 113.296 53.6166 112.282 53.1718 111.585C51.3057 108.777 50.9045 105.228 51.1533 101.932C51.4395 99.0174 52.3507 96.041 54.2977 93.7955Z" fill="#FFB800"/>
<g id="Vector_17" opacity="0.7" filter="url(#filter2_d_1_2042)">
<path d="M103.344 105.819C116.665 100.292 132.256 100.488 145.409 106.416C154.248 110.27 161.951 116.627 167.497 124.508C174.118 133.904 177.645 145.492 177.126 156.996C176.743 166.408 173.876 175.834 168.296 183.488C167.87 184.095 167.338 184.617 166.735 185.05C167.73 182.3 169.257 179.781 170.274 177.038C175.238 165.036 175.63 151.162 171.055 138.982C167.621 129.742 161.438 121.556 153.461 115.756C148.214 111.906 142.174 109.175 135.876 107.567C123.989 104.681 111.001 106.192 100.25 112.092C95.628 114.465 91.5039 117.725 87.8775 121.432C79.8472 129.655 74.843 140.755 73.9317 152.207C73.3874 159.45 74.2925 166.837 76.8988 173.635C80.0742 182.235 85.632 189.926 92.8226 195.615C101.867 202.808 113.437 206.849 125.012 206.544C137.052 206.556 148.904 201.869 158.058 194.116C160.014 192.548 161.718 190.688 163.693 189.149C161.759 192.287 159.031 194.868 156.251 197.257C148.541 203.605 138.933 207.611 129.003 208.671C122.866 209.144 116.618 209.019 110.628 207.474C100.119 204.905 90.4651 199.033 83.3398 190.897C75.5334 182.086 70.7905 170.6 70.1125 158.844C69.3007 146.674 72.8618 134.292 79.9467 124.371C85.828 116.185 93.9765 109.598 103.344 105.819Z" fill="#FFB800"/>
</g>
<path id="Vector_18" opacity="0.7" d="M52.612 137.726C53.2838 136.908 53.912 135.972 54.9135 135.534C54.195 138.009 52.8701 140.258 52.1144 142.724C49.6667 149.955 49.7476 157.79 51.0849 165.235C51.8873 170.174 53.3709 174.961 54.9943 179.682C55.4951 181.324 56.2944 182.948 56.1202 184.714C54.6864 184.235 53.856 182.873 53.0598 181.682C50.7677 177.925 49.166 173.77 48.0899 169.509C46.1833 161.768 46.1616 153.47 48.5968 145.841C49.5485 142.97 50.8361 140.183 52.612 137.726Z" fill="#FFB800"/>
<path id="Vector_19" opacity="0.7" d="M192.903 139.925C192.878 139.12 192.524 138.094 193.295 137.528C194.965 139.08 195.708 141.3 196.421 143.4C199.817 154.31 199.213 166.595 194.044 176.855C192.558 179.704 190.701 182.382 188.393 184.624C187.675 185.284 186.932 185.977 185.955 186.207C186.77 184.338 188.129 182.78 189.109 180.998C192.601 175.179 194.315 168.414 194.604 161.668C194.598 157.429 194.772 153.172 194.247 148.951C193.908 145.928 193.301 142.942 192.903 139.925Z" fill="#FFB800"/>
<path id="Vector_20" opacity="0.7" d="M41.6675 153.917C42.0407 152.891 42.501 151.747 43.5865 151.296C43.7358 152.683 43.5523 154.07 43.5087 155.454C43.4061 159.653 44.7248 163.742 44.6999 167.929C44.7777 168.541 44.0437 168.964 43.6082 168.467C42.1278 167.142 41.4591 165.157 41.0548 163.267C40.4359 160.172 40.6785 156.913 41.6675 153.917Z" fill="#FFB800"/>
<path id="Vector_21" opacity="0.7" d="M201.444 155.992C201.574 155.18 202.557 155.28 202.871 155.92C204.181 157.976 204.355 160.539 204.249 162.915C204.056 165.577 203.31 168.227 201.979 170.55C201.469 171.424 200.806 172.252 199.854 172.668C199.646 171.67 200.05 170.703 200.262 169.745C201.434 165.251 200.744 160.542 201.444 155.992Z" fill="#FFB800"/>
</g>
</g>
</g>
</g>
<defs>
<filter id="filter0_d_1_2042" x="46.6886" y="77.0708" width="149.648" height="158.126" filterUnits="userSpaceOnUse" color-interpolation-filters="sRGB">
<feFlood flood-opacity="0" result="BackgroundImageFix"/>
<feColorMatrix in="SourceAlpha" type="matrix" values="0 0 0 0 0 0 0 0 0 0 0 0 0 0 0 0 0 0 127 0" result="hardAlpha"/>
<feOffset/>
<feGaussianBlur stdDeviation="21.5"/>
<feComposite in2="hardAlpha" operator="out"/>
<feColorMatrix type="matrix" values="0 0 0 0 1 0 0 0 0 0.72 0 0 0 0 0 0 0 0 1 0"/>
<feBlend mode="normal" in2="BackgroundImageFix" result="effect1_dropShadow_1_2042"/>
<feBlend mode="normal" in="SourceGraphic" in2="effect1_dropShadow_1_2042" result="shape"/>
</filter>
<filter id="filter1_d_1_2042" x="0.87854" y="0.234863" width="232.016" height="273.745" filterUnits="userSpaceOnUse" color-interpolation-filters="sRGB">
<feFlood flood-opacity="0" result="BackgroundImageFix"/>
<feColorMatrix in="SourceAlpha" type="matrix" values="0 0 0 0 0 0 0 0 0 0 0 0 0 0 0 0 0 0 127 0" result="hardAlpha"/>
<feOffset/>
<feGaussianBlur stdDeviation="21.5"/>
<feComposite in2="hardAlpha" operator="out"/>
<feColorMatrix type="matrix" values="0 0 0 0 1 0 0 0 0 0.72 0 0 0 0 0 0 0 0 1 0"/>
<feBlend mode="normal" in2="BackgroundImageFix" result="effect1_dropShadow_1_2042"/>
<feBlend mode="normal" in="SourceGraphic" in2="effect1_dropShadow_1_2042" result="shape"/>
</filter>
<filter id="filter2_d_1_2042" x="26.9988" y="58.8171" width="193.177" height="193.097" filterUnits="userSpaceOnUse" color-interpolation-filters="sRGB">
<feFlood flood-opacity="0" result="BackgroundImageFix"/>
<feColorMatrix in="SourceAlpha" type="matrix" values="0 0 0 0 0 0 0 0 0 0 0 0 0 0 0 0 0 0 127 0" result="hardAlpha"/>
<feOffset/>
<feGaussianBlur stdDeviation="21.5"/>
<feComposite in2="hardAlpha" operator="out"/>
<feColorMatrix type="matrix" values="0 0 0 0 1 0 0 0 0 0.72 0 0 0 0 0 0 0 0 1 0"/>
<feBlend mode="normal" in2="BackgroundImageFix" result="effect1_dropShadow_1_2042"/>
<feBlend mode="normal" in="SourceGraphic" in2="effect1_dropShadow_1_2042" result="shape"/>
</filter>
<linearGradient id="paint0_linear_1_2042" x1="120.492" y1="178.057" x2="140.811" y2="172.901" gradientUnits="userSpaceOnUse">
<stop stop-color="#DD0000"/>
<stop offset="1" stop-color="#FF4D00" stop-opacity="0.93"/>
</linearGradient>
</defs>
</svg>
