<svg width="121" height="37" viewBox="0 0 121 37" fill="none" xmlns="http://www.w3.org/2000/svg">
<g id="Group 2">
<path id="Vector" d="M89.7691 4.79541C90.6911 2.36974 93.0112 0.566636 95.5708 0.202549C96.7924 0.0149884 98.0517 0.200972 99.196 0.650171C100.659 1.2034 101.972 2.06397 103.316 2.84573C107.501 5.22254 111.632 7.6955 115.831 10.0503C117.123 10.8352 118.512 11.5271 119.579 12.6225C111.63 17.3021 103.705 22.0242 95.7647 26.7179C94.5117 27.3168 93.4982 28.4327 93.235 29.8229C101.847 24.7509 110.418 19.608 119.03 14.5391C119.054 14.8181 118.947 15.0151 118.705 15.1254C110.196 20.1754 101.686 25.2269 93.1767 30.2784C93.1735 30.7528 93.2224 31.2241 93.3154 31.6906C101.89 26.6076 110.446 21.4977 119.035 16.4399C119.055 16.7157 118.95 16.9096 118.715 17.0215C113.29 20.2353 107.871 23.46 102.448 26.6738C102.709 27.041 102.972 27.4098 103.232 27.7802C108.495 24.6705 113.731 21.5182 119.008 18.4385C119.002 18.5393 118.991 18.7395 118.984 18.8404C113.791 21.9186 108.601 24.9999 103.411 28.0844C103.414 28.6692 103.412 29.2539 103.411 29.8387C108.613 26.7479 113.811 23.646 119.029 20.5773C119.112 21.0848 118.576 21.2109 118.25 21.4378C113.301 24.3695 108.355 27.3058 103.411 30.2453C103.412 30.7229 103.412 31.1989 103.411 31.6764C109.264 28.1963 115.126 24.732 120.984 21.2597C119.574 23.7043 116.942 24.97 114.577 26.3018C110.867 28.4769 107.121 30.5873 103.409 32.7624C103.42 34.0154 103.403 35.27 103.42 36.5231C102.854 35.9588 102.271 35.4119 101.713 34.8397C101.105 35.3977 100.499 35.9588 99.9005 36.5262C99.9052 35.921 99.9005 35.3142 99.9084 34.7089C98.4047 35.4182 96.6852 35.7539 95.046 35.363C92.9261 34.9233 91.134 33.4149 90.0906 31.5503C89.2805 30.0609 89.2269 28.3193 89.2206 26.6643C89.2174 20.6734 89.2206 14.6841 89.219 8.6932C89.2174 7.3787 89.3073 6.03741 89.7691 4.79541ZM97.9745 9.99824C97.2542 10.3718 97.1817 11.2986 97.1297 12.0141C97.1044 13.8519 97.136 15.6897 97.1076 17.5274C97.1438 18.1973 97.1911 19.0011 97.7648 19.4488C98.3638 19.827 99.1109 19.5733 99.7098 19.3195C100.834 18.7915 101.869 18.098 102.957 17.5038C103.641 17.0751 104.391 16.7473 105.025 16.2413C105.699 15.7054 105.943 14.6857 105.526 13.9212C105.225 13.3239 104.615 12.9913 104.058 12.6714C102.725 11.929 101.425 11.1299 100.088 10.3954C99.445 10.096 98.6837 9.6909 97.9745 9.99824ZM93.4257 32.0311C93.6164 32.4393 93.8418 32.8317 94.1129 33.1943C95.9838 32.0799 97.8594 30.9703 99.7319 29.8576C99.4907 29.4761 99.2559 29.0931 99.0226 28.7086C97.1564 29.8166 95.2903 30.923 93.4257 32.0311ZM94.3462 33.459C94.7654 33.8373 95.2383 34.1478 95.7537 34.3795C97.1375 33.5536 98.5261 32.7388 99.9068 31.9097C99.9021 31.325 99.9021 30.7402 99.9068 30.1555C98.058 31.2635 96.2013 32.3621 94.3462 33.459ZM96.1997 34.5371C97.4874 34.8571 98.8366 34.5072 99.9052 33.7522C99.9021 33.2746 99.9021 32.7955 99.9084 32.3179C98.6758 33.065 97.4228 33.7774 96.1997 34.5371Z" fill="#FFB800"/>
<g id="Group 1">
<path id="Vector_2" d="M12.7847 2.96362C12.7828 2.35056 13.7402 2.20486 13.937 2.77251C14.0846 3.55209 13.9748 4.35815 14.0013 5.14718C14.4744 4.7328 15.0401 4.35437 15.7024 4.40546C16.6428 4.35437 17.5132 5.03555 17.744 5.93811C18.0373 7.02611 17.9313 8.36387 17.0799 9.18507C16.2379 9.9741 14.7695 9.853 14.0543 8.95044C13.971 9.274 13.8518 9.72055 13.428 9.70541C12.9928 9.78299 12.7184 9.33266 12.7619 8.95044C12.7676 6.9542 12.7241 4.95607 12.7847 2.96362ZM14.8452 5.47453C13.6607 6.15382 13.761 8.65905 15.3202 8.75744C16.4252 8.74609 16.726 7.38373 16.516 6.50765C16.4536 5.7224 15.5964 5.05825 14.8452 5.47453Z" fill="#F5F5F5"/>
<path id="Vector_3" d="M31.1104 2.58332C31.4832 2.38086 32.0981 2.60981 32.0792 3.08664C32.1624 3.62591 31.4661 3.92108 31.0517 3.65618C30.6336 3.44236 30.6771 2.75551 31.1104 2.58332Z" fill="#F5F5F5"/>
<path id="Vector_4" d="M0.962387 3.62778C0.402305 3.60697 0.383384 2.70629 0.93022 2.63628C2.19608 2.57006 3.46572 2.6325 4.73348 2.60601C5.08542 2.62682 5.48466 2.54924 5.78552 2.7782C6.09583 3.13014 6.01258 3.6959 5.71551 4.03081C4.461 5.54643 3.19893 7.05449 1.94253 8.57012C3.26137 8.58904 4.58399 8.53228 5.90094 8.59472C6.45913 8.61175 6.46481 9.53891 5.91419 9.58243C4.51777 9.66947 3.11378 9.58621 1.71358 9.62027C1.29162 9.59757 0.82615 9.68082 0.445824 9.45565C0.0844205 9.21724 0.0598229 8.66662 0.360677 8.37144C1.66627 6.79905 2.97944 5.23044 4.28503 3.65616C3.17811 3.63535 2.06741 3.69968 0.962387 3.62778Z" fill="#F5F5F5"/>
<path id="Vector_5" d="M7.33139 5.11313C7.96148 4.41682 8.98893 4.36194 9.86311 4.42439C10.4989 4.45655 11.2576 4.69118 11.4771 5.36101C11.8253 6.46982 11.4317 7.66188 11.7761 8.77448C11.9067 9.10182 11.8934 9.51999 11.5055 9.65623C11.0022 9.89464 10.69 9.31942 10.4156 9.00721C9.85365 9.38943 9.21788 9.74137 8.514 9.70731C7.74199 9.75083 6.92079 9.21725 6.83754 8.41118C6.71265 7.69784 7.24246 7.00341 7.92932 6.84636C8.74295 6.63822 9.5774 6.52469 10.3816 6.27682C10.2643 5.95515 10.2378 5.46886 9.81581 5.40453C9.31817 5.31938 8.67483 5.29289 8.32857 5.73187C8.07123 6.00245 7.83849 6.48874 7.38248 6.27871C6.88863 6.07246 7.04378 5.42913 7.33139 5.11313ZM8.2718 7.74703C7.81768 8.37334 8.64456 9.07723 9.27465 8.82178C10.1318 8.7215 10.4081 7.82272 10.3702 7.0791C9.68525 7.31751 8.84702 7.26453 8.2718 7.74703Z" fill="#F5F5F5"/>
<path id="Vector_6" d="M19.5077 4.81039C20.2418 4.35437 21.1576 4.35816 21.9864 4.46033C22.5257 4.52278 23.1047 4.79146 23.2939 5.3383C23.6439 6.37521 23.2901 7.49348 23.5493 8.54552C23.6212 8.91071 23.8464 9.41214 23.3961 9.62027C22.8852 9.94194 22.5124 9.34591 22.2419 9.00343C21.4188 9.63919 20.1889 10.0195 19.256 9.39132C18.4026 8.84259 18.4727 7.39887 19.4131 6.9807C20.3043 6.62497 21.2863 6.57578 22.2021 6.29195C22.0905 6.00624 22.1056 5.59753 21.7821 5.44994C21.1312 5.22666 20.3062 5.34398 19.9372 5.98542C19.748 6.44711 19.0233 6.40927 18.8946 5.92676C18.8378 5.47075 19.1311 5.03934 19.5077 4.81039ZM20.0469 7.82461C19.6685 8.61175 20.7508 9.11507 21.362 8.74231C22.0848 8.52849 22.1927 7.71297 22.1908 7.07153C21.4982 7.344 20.5711 7.23614 20.0469 7.82461Z" fill="#F5F5F5"/>
<path id="Vector_7" d="M24.7847 4.95419C24.7657 4.38843 25.6059 4.20111 25.8821 4.65901C25.92 4.782 25.9975 5.03177 26.0373 5.15476C26.8642 4.09136 28.9777 4.10082 29.3675 5.54833C29.5075 6.73283 29.4432 7.93814 29.4186 9.12831C29.4262 9.77922 28.4082 9.92302 28.2057 9.3251C27.9862 8.19926 28.2852 7.02233 28.0316 5.90027C27.8008 5.03366 26.4725 5.29289 26.2246 6.03083C25.9124 7.08288 26.2038 8.20683 26.0259 9.27969C25.8613 9.91356 24.8017 9.80571 24.7884 9.13777C24.7374 7.74514 24.7468 6.34683 24.7847 4.95419Z" fill="#F5F5F5"/>
<path id="Vector_8" d="M31.0913 4.48303C31.4962 4.23515 32.0923 4.55682 32.0677 5.04311C32.0904 6.38466 32.0942 7.72998 32.0639 9.07153C32.1036 9.74703 31.0516 9.95517 30.8302 9.32508C30.6732 8.1368 30.8075 6.92392 30.7583 5.72618C30.7905 5.3099 30.6542 4.7309 31.0913 4.48303Z" fill="#F5F5F5"/>
<path id="Vector_9" d="M33.3752 4.8312C33.5512 4.11596 34.6486 4.35816 34.6373 5.06394C35.4074 4.23328 36.9098 4.12921 37.6212 5.09043C38.0526 4.70632 38.5768 4.36573 39.1823 4.40547C39.8748 4.3733 40.6922 4.76498 40.7868 5.51995C40.9117 6.46793 40.8247 7.42915 40.853 8.38469C40.8247 8.78205 40.9344 9.29482 40.5768 9.58054C40.1984 9.8814 39.5475 9.6392 39.5153 9.14156C39.4055 8.04221 39.5796 6.92772 39.4188 5.83594C39.239 5.07908 38.1321 5.31371 37.9221 5.93244C37.6155 7.0053 37.8899 8.14249 37.7291 9.23427C37.6118 9.85869 36.59 9.86247 36.4727 9.23806C36.3232 8.08005 36.5559 6.88988 36.3308 5.73755C36.0791 5.09043 34.9798 5.30046 34.8435 5.93623C34.5446 6.97881 34.7905 8.07816 34.6619 9.13967C34.6335 9.64298 33.9807 9.8814 33.606 9.57865C33.2465 9.29104 33.3582 8.77826 33.3317 8.37902C33.3657 7.19641 33.2768 6.01002 33.3752 4.8312Z" fill="#F5F5F5"/>
<path id="Vector_10" d="M43.4245 4.56064C44.4066 4.23897 45.6119 4.39224 46.3479 5.16424C47.1559 6.03842 47.2297 7.4443 46.6923 8.47742C45.8427 10.0536 43.2769 10.1312 42.2684 8.67989C41.3583 7.34969 41.767 5.08288 43.4245 4.56064ZM43.9619 5.4386C43.0499 5.8511 42.9969 7.09236 43.2713 7.92491C43.4794 8.65339 44.4122 8.99399 45.048 8.58528C45.7689 8.09521 45.8049 7.07344 45.6081 6.30522C45.4473 5.59944 44.6393 5.14532 43.9619 5.4386Z" fill="#F5F5F5"/>
<path id="Vector_11" d="M59.2488 5.90973C60.5355 5.94568 61.9527 6.29195 62.8496 7.26641C62.965 11.7982 62.808 16.3488 62.8591 20.8862C62.9234 21.9685 63.0559 23.1776 63.8581 23.9837C64.5393 24.6441 65.5592 24.4492 66.4201 24.4908C67.2167 24.4586 68.1458 24.6081 68.7835 24.0178C69.6236 23.2117 69.7541 21.9648 69.8204 20.8654C69.8506 18.468 69.809 16.0707 69.8412 13.6733C70.9689 13.679 72.1061 13.9855 73.037 14.6364C73.3095 14.8559 73.529 15.1946 73.4912 15.5598C73.4628 17.3271 73.4458 19.0962 73.4363 20.8635C73.4212 22.6743 72.7967 24.5041 71.5366 25.8267C70.2726 27.2988 68.3747 28.2165 66.4201 28.1597C64.2498 28.2524 62.2763 27.049 60.7758 25.5788C59.5194 24.294 59.228 22.3962 59.2375 20.6724C59.2356 15.7509 59.2356 10.8313 59.2488 5.90973Z" fill="#F5F5F5"/>
<path id="Vector_12" d="M78.0266 6.95235C79.0805 6.37524 80.5602 6.88801 80.9916 8.01953C81.4438 9.07157 80.8837 10.4169 79.8109 10.8237C78.8648 11.2192 77.669 10.818 77.194 9.90223C76.5904 8.90885 76.9802 7.47269 78.0266 6.95235Z" fill="#F5F5F5"/>
<path id="Vector_13" d="M51.1617 7.90786C52.174 7.4405 53.5079 7.923 53.9394 8.9618C54.4843 10.0876 53.8088 11.6052 52.5789 11.8965C51.5136 12.2144 50.2837 11.5484 49.9847 10.4755C49.6498 9.48026 50.1815 8.29576 51.1617 7.90786Z" fill="#F5F5F5"/>
<path id="Vector_14" d="M1.57169 16.3924C2.68428 15.136 4.12422 13.995 5.8461 13.7982C7.8272 13.5938 10.0089 13.6165 11.674 14.8654C13.2747 16.0726 14.7374 17.8285 14.7714 19.9288C14.7923 21.242 14.7658 22.7046 15.6078 23.8002C16.359 24.7406 17.6835 24.4416 18.7336 24.4776C19.5397 24.54 20.3268 24.0821 20.658 23.3442C21.5076 21.628 21.0648 19.6809 21.1064 17.8531C22.219 17.6355 23.483 17.9118 24.2663 18.7613C24.8491 20.0726 24.5937 21.6488 25.4319 22.8673C26.3193 24.2013 28.1566 24.4833 29.6174 24.1351C32.081 23.4482 32.5994 19.6109 30.5673 18.1502C29.9353 17.6885 29.1784 17.3895 28.4007 17.3006C26.045 17.17 23.6646 17.4557 21.3202 17.153C20.9229 16.241 21.3827 15.1814 21.9484 14.4359C22.2493 14.0972 22.5483 13.5825 23.0818 13.6828C25.0421 13.6998 27.0043 13.6582 28.9646 13.7036C32.4689 13.8512 35.625 16.9505 35.7026 20.4813C35.7385 21.6715 35.8123 23.0168 36.6619 23.9402C37.309 24.6233 38.3232 24.4624 39.1709 24.4889C39.9978 24.4927 40.9912 24.5457 41.5513 23.8078C42.3498 22.7633 42.3819 21.3669 42.3952 20.1067C42.3763 17.9629 42.3933 15.8171 42.4046 13.6733C43.5362 13.6771 44.6771 13.9874 45.6081 14.644C45.8768 14.8635 46.0925 15.1984 46.0546 15.5598C46.0414 17.3895 45.9752 19.2211 46.0244 21.0528C46.1019 22.084 46.2533 23.2363 47.0272 23.9951C47.7103 24.6422 48.7245 24.4473 49.5797 24.4908C50.4274 24.4549 51.436 24.629 52.0963 23.9629C52.8456 23.1909 52.9913 22.0556 53.067 21.0319C53.1143 18.5759 53.0557 16.118 53.0973 13.662C54.191 13.6884 55.296 13.9647 56.2099 14.5815C56.524 14.7973 56.7832 15.1587 56.7454 15.556C56.717 17.3271 56.7 19.0963 56.6905 20.8673C56.681 22.7387 55.998 24.6252 54.664 25.9629C53.3508 27.4426 51.3735 28.2771 49.3924 28.1597C47.3924 28.2184 45.4794 27.2401 44.2003 25.734C42.9136 27.2496 40.9836 28.2279 38.9741 28.1597C36.9949 28.2411 35.1274 27.2193 33.8785 25.7283C32.4594 27.3102 30.3421 28.2846 28.202 28.1597C26.2115 28.19 24.255 27.3139 22.9361 25.8248C21.64 27.2761 19.7592 28.2297 17.7876 28.1578C15.8405 28.2184 14.06 27.1153 12.8717 25.6375C11.7497 27.0793 10.3816 28.2979 9.11197 29.6035C7.95775 30.7255 6.87544 31.9233 5.64553 32.9658C4.50266 32.5382 2.93973 32.3433 2.40614 31.0831C4.96813 28.5817 7.57932 26.1294 10.0316 23.5183C11.2842 22.241 11.358 19.9761 10.1697 18.6365C9.23118 17.6128 7.70988 17.452 6.41185 17.6961C4.28884 18.0726 3.1403 20.8768 4.26235 22.6781C4.99462 23.9894 6.07694 25.0566 7.14412 26.0973C6.19047 26.839 5.09112 27.7624 3.80445 27.5959C1.81578 26.5779 0.718324 24.4189 0.320969 22.294C-0.214515 20.2732 0.18284 17.9893 1.57169 16.3924Z" fill="#F5F5F5"/>
<path id="Vector_15" d="M77.3434 13.6657C78.6301 13.7168 80.0663 14.0461 80.9499 15.0395C81.0199 18.2353 80.914 21.4463 80.9461 24.6479C80.9783 26.0557 80.8723 27.5088 80.2668 28.8012C79.1126 31.278 76.5184 33.1305 73.7237 32.9734C73.7048 31.7511 73.7161 30.5287 73.7161 29.3064C74.6509 29.2496 75.8089 29.4672 76.473 28.6309C77.3396 27.5126 77.3264 26.0065 77.334 24.6573C77.3378 20.9941 77.3188 17.329 77.3434 13.6657Z" fill="#F5F5F5"/>
<path id="Vector_16" d="M38.3194 30.086C39.4736 29.6564 40.8455 30.4568 41.0649 31.6583C41.3601 32.9147 40.3062 34.3036 38.9855 34.2355C37.8161 34.2695 36.8038 33.1778 36.8719 32.0216C36.8776 31.1512 37.4925 30.3452 38.3194 30.086Z" fill="#F5F5F5"/>
<path id="Vector_17" d="M42.6732 30.0992C43.8294 29.6564 45.2731 30.4228 45.4831 31.6583C45.7688 32.875 44.7868 34.2014 43.5247 34.2317C42.5067 34.3282 41.5474 33.56 41.3412 32.576C41.0819 31.5675 41.6855 30.4322 42.6732 30.0992Z" fill="#F5F5F5"/>
<path id="Vector_18" d="M67.983 30.0425C69.1032 29.5808 70.5204 30.279 70.7872 31.4729C71.143 32.6953 70.1931 34.1144 68.897 34.156C67.5933 34.3017 66.4315 33.0245 66.632 31.7454C66.7134 30.9791 67.264 30.3036 67.983 30.0425Z" fill="#F5F5F5"/>
</g>
</g>
</svg>
