<svg width="76" height="53" viewBox="0 0 76 53" fill="none" xmlns="http://www.w3.org/2000/svg">
<g id="#1d4e86ff">
<path id="Vector" d="M38.5444 0.685236C41.0092 -0.210935 43.8844 -0.188958 46.2157 1.07838C48.2998 2.18944 49.793 4.21864 50.4135 6.45785C51.2343 9.39787 51.311 12.5503 50.5866 15.5148C49.7263 18.9139 47.8276 21.9931 45.4617 24.5742C42.8782 27.3872 39.6693 29.5458 36.396 31.4945C33.4343 33.2404 30.4602 34.9766 27.3601 36.471C26.8533 36.6908 26.3366 37.1206 26.4206 37.731C27.0189 42.8346 31.6716 47.5205 37.0364 47.3228C38.8633 47.2641 40.6038 46.4852 42.0055 45.3521C44.1514 43.6013 45.741 41.3133 47.2466 39.0252C49.479 35.7043 51.6595 32.2319 54.8561 29.7143C57.2987 27.8292 60.1343 26.4276 63.1331 25.6437C62.3989 27.1186 61.2246 28.3542 59.8525 29.2699C58.0305 30.4884 55.6472 30.7985 54.1293 32.4615C54.0972 32.5811 54.0378 32.8155 54.0081 32.9352C55.0836 33.0597 56.1862 32.5078 57.2295 32.8692C58.1763 33.4895 58.1467 34.8203 57.7659 35.7604C56.8932 37.9435 55.222 39.8872 53.0044 40.8127C51.7881 41.3255 50.6014 41.9604 49.6521 42.8858C48.3814 44.0482 47.6743 45.6427 46.6459 46.9931C44.7472 49.579 42.0698 51.6962 38.8979 52.502C34.2576 53.6814 29.1005 52.2212 25.6542 48.9661C23.7877 47.2617 22.6233 44.9761 21.6047 42.7125C21.1424 41.7162 20.9694 40.6027 20.4205 39.6455C20.0522 39.5014 19.6789 39.6333 19.3352 39.7773C13.4786 42.3608 7.71828 45.1983 2.32389 48.6389C1.56244 49.1297 0.82325 49.6572 0 50.0479C0.227444 47.6768 1.67122 45.6501 3.35728 44.0384C7.51308 39.875 13.0162 37.4478 18.3933 35.2208C19.1622 34.9131 20.2327 34.5786 20.2376 33.5798C20.3711 29.8731 20.7246 26.1541 21.6913 22.5572C23.0337 17.4488 25.3427 12.5772 28.5344 8.34054C31.0758 4.95365 34.5147 2.14792 38.5444 0.685236ZM40.8164 4.12829C39.2366 4.3798 37.7261 4.99516 36.3565 5.80342C33.103 7.71542 30.8978 10.9118 29.281 14.2157C26.9769 18.7723 25.8322 23.8147 25.3353 28.8597C25.2612 29.7705 25.1054 30.6838 25.187 31.597C25.3452 31.8803 25.5652 31.9413 25.8471 31.7777C31.8768 29.3578 37.8423 26.2517 42.228 21.3851C44.7695 18.6404 46.6038 15.1265 46.767 11.3611C46.8362 9.53706 46.6879 7.586 45.7138 5.98412C44.7027 4.39934 42.6112 3.82794 40.8164 4.12829Z" fill="white"/>
<path id="Vector_2" d="M70.7378 21.6709C71.5042 21.3461 72.2929 21.8858 72.7181 22.4938C73.6378 23.7196 74.6242 24.8966 75.5191 26.1395C75.8702 26.54 75.8455 27.1993 75.356 27.4777C73.8825 28.5643 72.3423 29.5557 70.8466 30.6106C70.4313 30.867 69.8948 31.3187 69.4226 30.911C68.6735 30.1589 68.189 29.1943 67.5437 28.3592C66.9652 27.4801 66.2285 26.6914 65.7712 25.739C65.7118 25.1017 66.4312 24.8111 66.8342 24.4473C68.1544 23.5511 69.3064 22.3961 70.7378 21.6709Z" fill="white"/>
</g>
</svg>
