<svg width="43" height="43" viewBox="0 0 43 43" fill="none" xmlns="http://www.w3.org/2000/svg">
<g id="Frame 10109" filter="url(#filter0_d_1_1199)">
<rect x="0.962891" y="0.5" width="40" height="40" rx="8" fill="#131313"/>
<path id="Vector" d="M10.2456 9.95338C10.9944 7.98347 12.8785 6.51915 14.9572 6.22348C15.9492 6.07116 16.9719 6.2222 17.9012 6.58699C19.089 7.03627 20.1553 7.73515 21.2471 8.37002C24.6455 10.3003 28.0004 12.3086 31.4103 14.2209C32.4599 14.8583 33.5875 15.4202 34.4541 16.3098C27.9991 20.1101 21.5633 23.945 15.1147 27.7568C14.0971 28.2432 13.274 29.1494 13.0603 30.2784C20.0542 26.1594 27.0148 21.9828 34.0087 17.8663C34.0279 18.0929 33.9408 18.2529 33.745 18.3425C26.8343 22.4436 19.9236 26.5459 13.0129 30.6483C13.0103 31.0336 13.05 31.4163 13.1255 31.7952C20.0887 27.6672 27.0378 23.5175 34.0125 19.41C34.0291 19.634 33.9434 19.7914 33.7527 19.8823C29.3469 22.4922 24.9463 25.1111 20.5418 27.721C20.7543 28.0192 20.9681 28.3187 21.1793 28.6195C25.4532 26.0941 29.7053 23.5341 33.9907 21.033C33.9856 21.1149 33.9766 21.2775 33.9715 21.3594C29.7539 23.8592 25.5389 26.3616 21.3239 28.8666C21.3265 29.3414 21.3252 29.8163 21.3239 30.2912C25.5492 27.7811 29.7706 25.2621 34.0074 22.77C34.0752 23.1821 33.64 23.2845 33.3751 23.4688C29.3559 25.8496 25.3392 28.2342 21.3239 30.6214C21.3252 31.0093 21.3252 31.3958 21.3239 31.7837C26.0778 28.9574 30.8381 26.144 35.5958 23.3242C34.4502 25.3095 32.3127 26.3373 30.3927 27.4189C27.3796 29.1853 24.337 30.8992 21.3226 32.6656C21.3316 33.6832 21.3175 34.7021 21.3316 35.7196C20.8721 35.2614 20.3985 34.8173 19.9454 34.3526C19.4513 34.8057 18.9598 35.2614 18.4734 35.7222C18.4772 35.2307 18.4734 34.7379 18.4798 34.2464C17.2587 34.8224 15.8622 35.095 14.531 34.7776C12.8094 34.4205 11.354 33.1955 10.5067 31.6813C9.84877 30.4717 9.80525 29.0573 9.80013 27.7133C9.79757 22.848 9.80012 17.9841 9.79884 13.1188C9.79756 12.0513 9.87052 10.962 10.2456 9.95338ZM16.9092 14.1786C16.3243 14.482 16.2654 15.2346 16.2231 15.8157C16.2027 17.3082 16.2283 18.8007 16.2052 20.2932C16.2347 20.8372 16.2731 21.49 16.739 21.8535C17.2254 22.1607 17.8321 21.9546 18.3185 21.7485C19.2311 21.3197 20.0721 20.7565 20.9553 20.274C21.5108 19.9258 22.1201 19.6596 22.6346 19.2487C23.1825 18.8135 23.3809 17.9853 23.0417 17.3645C22.7972 16.8794 22.3018 16.6093 21.85 16.3495C20.7671 15.7466 19.7111 15.0977 18.6257 14.5012C18.1034 14.258 17.4852 13.929 16.9092 14.1786ZM13.2151 32.0717C13.37 32.4032 13.5531 32.7219 13.7732 33.0163C15.2926 32.1113 16.8158 31.2102 18.3364 30.3066C18.1406 29.9968 17.9498 29.6858 17.7604 29.3734C16.2449 30.2733 14.7294 31.1718 13.2151 32.0717ZM13.9627 33.2313C14.3031 33.5385 14.6871 33.7907 15.1057 33.9789C16.2295 33.3081 17.3572 32.6464 18.4785 31.9731C18.4746 31.4982 18.4746 31.0233 18.4785 30.5485C16.9771 31.4483 15.4692 32.3405 13.9627 33.2313ZM15.4679 34.1069C16.5137 34.3667 17.6094 34.0825 18.4772 33.4694C18.4746 33.0816 18.4746 32.6925 18.4798 32.3046C17.4788 32.9113 16.4612 33.4899 15.4679 34.1069Z" fill="#FFB800"/>
</g>
<defs>
<filter id="filter0_d_1_1199" x="0.962891" y="0.5" width="42" height="42" filterUnits="userSpaceOnUse" color-interpolation-filters="sRGB">
<feFlood flood-opacity="0" result="BackgroundImageFix"/>
<feColorMatrix in="SourceAlpha" type="matrix" values="0 0 0 0 0 0 0 0 0 0 0 0 0 0 0 0 0 0 127 0" result="hardAlpha"/>
<feOffset dx="2" dy="2"/>
<feComposite in2="hardAlpha" operator="out"/>
<feColorMatrix type="matrix" values="0 0 0 0 0 0 0 0 0 0 0 0 0 0 0 0 0 0 0.62 0"/>
<feBlend mode="normal" in2="BackgroundImageFix" result="effect1_dropShadow_1_1199"/>
<feBlend mode="normal" in="SourceGraphic" in2="effect1_dropShadow_1_1199" result="shape"/>
</filter>
</defs>
</svg>
